<?xml version="1.0" encoding="UTF-8" standalone="no"?>
<!DOCTYPE svg PUBLIC "-//W3C//DTD SVG 1.1//EN"
 "http://www.w3.org/Graphics/SVG/1.1/DTD/svg11.dtd">
<!-- Generated by graphviz version 2.40.1 (20161225.0304)
 -->
<!-- Title: G Pages: 1 -->
<svg width="311pt" height="93pt"
 viewBox="0.00 0.00 311.00 93.00" xmlns="http://www.w3.org/2000/svg" xmlns:xlink="http://www.w3.org/1999/xlink">
<g id="graph0" class="graph" transform="scale(1 1) rotate(0) translate(4 89)">
<title>G</title>
<polygon fill="#ffffff" stroke="transparent" points="-4,4 -4,-89 307,-89 307,4 -4,4"/>
<!-- node0000 -->
<g id="node1" class="node">
<title>node0000</title>
<polygon fill="#009aa6" stroke="#000000" points="225,-85 78,-85 78,-66 225,-66 225,-85"/>
<text text-anchor="middle" x="151.5" y="-73" font-family="Courier,monospace" font-size="10.00" fill="#ffffff">JsonFileStore(&#39;z.json&#39;)</text>
</g>
<!-- node0001 -->
<g id="node2" class="node">
<title>node0001</title>
<polygon fill="#e37222" stroke="#000000" points="303,-19 0,-19 0,0 303,0 303,-19"/>
<text text-anchor="middle" x="151.5" y="-7" font-family="Courier,monospace" font-size="10.00" fill="#ffffff">uberjob.stores.json_file_store.JsonFileStore.read</text>
</g>
<!-- node0000&#45;&gt;node0001 -->
<g id="edge1" class="edge">
<title>node0000&#45;&gt;node0001</title>
<path fill="none" stroke="#000000" d="M151.5,-65.7615C151.5,-56.2077 151.5,-41.3615 151.5,-29.3183"/>
<polygon fill="#000000" stroke="#000000" points="151.5,-19.2785 156.0001,-29.2784 151.5,-24.2785 151.5001,-29.2785 151.5001,-29.2785 151.5001,-29.2785 151.5,-24.2785 147.0001,-29.2785 151.5,-19.2785 151.5,-19.2785"/>
<text text-anchor="middle" x="155" y="-40" font-family="Courier,monospace" font-size="10.00" fill="#000000">0</text>
</g>
</g>
</svg>
