<?xml version="1.0" encoding="UTF-8" standalone="no"?>
<!DOCTYPE svg PUBLIC "-//W3C//DTD SVG 1.1//EN"
 "http://www.w3.org/Graphics/SVG/1.1/DTD/svg11.dtd">
<!-- Generated by graphviz version 2.40.1 (20161225.0304)
 -->
<!-- Title: G Pages: 1 -->
<svg width="164pt" height="181pt"
 viewBox="0.00 0.00 164.00 181.00" xmlns="http://www.w3.org/2000/svg" xmlns:xlink="http://www.w3.org/1999/xlink">
<g id="graph0" class="graph" transform="scale(1 1) rotate(0) translate(4 177)">
<title>G</title>
<polygon fill="#ffffff" stroke="transparent" points="-4,4 -4,-177 160,-177 160,4 -4,4"/>
<!-- node0000 -->
<g id="node1" class="node">
<title>node0000</title>
<polygon fill="#666666" stroke="#000000" points="156,-96 93,-96 93,-66 156,-66 156,-96"/>
<text text-anchor="middle" x="124.5" y="-84" font-family="Courier,monospace" font-size="10.00" fill="#ffffff">numerator</text>
<text text-anchor="middle" x="124.5" y="-73" font-family="Courier,monospace" font-size="10.00" fill="#ffffff">3 calls</text>
</g>
<!-- node0003 -->
<g id="node4" class="node">
<title>node0003</title>
<polygon fill="#666666" stroke="#000000" points="106,-30 55,-30 55,0 106,0 106,-30"/>
<text text-anchor="middle" x="80.5" y="-18" font-family="Courier,monospace" font-size="10.00" fill="#ffffff">divide</text>
<text text-anchor="middle" x="80.5" y="-7" font-family="Courier,monospace" font-size="10.00" fill="#ffffff">2 calls</text>
</g>
<!-- node0000&#45;&gt;node0003 -->
<g id="edge1" class="edge">
<title>node0000&#45;&gt;node0003</title>
<path fill="none" stroke="#000000" stroke-dasharray="5,2" d="M114.2949,-65.6924C108.9637,-57.6955 102.3205,-47.7307 96.3384,-38.7576"/>
<polygon fill="#000000" stroke="#000000" points="90.6497,-30.2246 99.941,-36.049 93.4233,-34.3849 96.1968,-38.5451 96.1968,-38.5451 96.1968,-38.5451 93.4233,-34.3849 92.4525,-41.0413 90.6497,-30.2246 90.6497,-30.2246"/>
</g>
<!-- node0001 -->
<g id="node2" class="node">
<title>node0001</title>
<polygon fill="#666666" stroke="#000000" points="156,-173 93,-173 93,-132 156,-132 156,-173"/>
<text text-anchor="middle" x="124.5" y="-161" font-family="Courier,monospace" font-size="10.00" fill="#ffffff">numerator</text>
<text text-anchor="middle" x="124.5" y="-150" font-family="Courier,monospace" font-size="10.00" fill="#ffffff">sqrt_term</text>
<text text-anchor="middle" x="124.5" y="-139" font-family="Courier,monospace" font-size="10.00" fill="#ffffff">5 calls</text>
</g>
<!-- node0001&#45;&gt;node0000 -->
<g id="edge2" class="edge">
<title>node0001&#45;&gt;node0000</title>
<path fill="none" stroke="#000000" stroke-dasharray="5,2" d="M124.5,-131.8192C124.5,-123.8154 124.5,-114.5781 124.5,-106.1923"/>
<polygon fill="#000000" stroke="#000000" points="124.5,-96.1824 129.0001,-106.1824 124.5,-101.1824 124.5001,-106.1824 124.5001,-106.1824 124.5001,-106.1824 124.5,-101.1824 120.0001,-106.1825 124.5,-96.1824 124.5,-96.1824"/>
</g>
<!-- node0002 -->
<g id="node3" class="node">
<title>node0002</title>
<polygon fill="#666666" stroke="#000000" points="75,-96 0,-96 0,-66 75,-66 75,-96"/>
<text text-anchor="middle" x="37.5" y="-84" font-family="Courier,monospace" font-size="10.00" fill="#ffffff">denominator</text>
<text text-anchor="middle" x="37.5" y="-73" font-family="Courier,monospace" font-size="10.00" fill="#ffffff">1 call</text>
</g>
<!-- node0002&#45;&gt;node0003 -->
<g id="edge3" class="edge">
<title>node0002&#45;&gt;node0003</title>
<path fill="none" stroke="#000000" stroke-dasharray="5,2" d="M47.4731,-65.6924C52.6832,-57.6955 59.1754,-47.7307 65.0216,-38.7576"/>
<polygon fill="#000000" stroke="#000000" points="70.5809,-30.2246 68.8925,-41.0597 67.8515,-34.4139 65.1221,-38.6033 65.1221,-38.6033 65.1221,-38.6033 67.8515,-34.4139 61.3517,-36.1468 70.5809,-30.2246 70.5809,-30.2246"/>
</g>
</g>
</svg>
