<?xml version="1.0" encoding="UTF-8" standalone="no"?>
<!DOCTYPE svg PUBLIC "-//W3C//DTD SVG 1.1//EN"
 "http://www.w3.org/Graphics/SVG/1.1/DTD/svg11.dtd">
<!-- Generated by graphviz version 2.40.1 (20161225.0304)
 -->
<!-- Title: G Pages: 1 -->
<svg width="129pt" height="159pt"
 viewBox="0.00 0.00 129.00 159.00" xmlns="http://www.w3.org/2000/svg" xmlns:xlink="http://www.w3.org/1999/xlink">
<g id="graph0" class="graph" transform="scale(1 1) rotate(0) translate(4 155)">
<title>G</title>
<polygon fill="#ffffff" stroke="transparent" points="-4,4 -4,-155 125,-155 125,4 -4,4"/>
<!-- node0000 -->
<g id="node1" class="node">
<title>node0000</title>
<polygon fill="#e37222" stroke="#000000" points="107,-85 80,-85 80,-66 107,-66 107,-85"/>
<text text-anchor="middle" x="93.5" y="-73" font-family="Courier,monospace" font-size="10.00" fill="#ffffff">add</text>
</g>
<!-- node0006 -->
<g id="node7" class="node">
<title>node0006</title>
<polygon fill="#e37222" stroke="#000000" points="80,-19 47,-19 47,0 80,0 80,-19"/>
<text text-anchor="middle" x="63.5" y="-7" font-family="Courier,monospace" font-size="10.00" fill="#ffffff">area</text>
</g>
<!-- node0000&#45;&gt;node0006 -->
<g id="edge1" class="edge">
<title>node0000&#45;&gt;node0006</title>
<path fill="none" stroke="#000000" d="M89.0734,-65.7615C84.6422,-56.0127 77.7061,-40.7534 72.1748,-28.5846"/>
<polygon fill="#000000" stroke="#000000" points="67.9448,-19.2785 76.1795,-26.52 70.0138,-23.8303 72.0829,-28.3822 72.0829,-28.3822 72.0829,-28.3822 70.0138,-23.8303 67.9862,-30.2443 67.9448,-19.2785 67.9448,-19.2785"/>
<text text-anchor="middle" x="95" y="-40" font-family="Courier,monospace" font-size="10.00" fill="#000000">width</text>
</g>
<!-- node0001 -->
<g id="node2" class="node">
<title>node0001</title>
<polygon fill="#009aa6" stroke="#000000" points="88,-151 73,-151 73,-132 88,-132 88,-151"/>
<text text-anchor="middle" x="80.5" y="-139" font-family="Courier,monospace" font-size="10.00" fill="#ffffff">1</text>
</g>
<!-- node0001&#45;&gt;node0000 -->
<g id="edge2" class="edge">
<title>node0001&#45;&gt;node0000</title>
<path fill="none" stroke="#000000" d="M80.9286,-131.9188C81.4145,-124.0752 82.4277,-112.7273 84.5,-103 85.0881,-100.2394 85.8516,-97.3658 86.6852,-94.5619"/>
<polygon fill="#000000" stroke="#000000" points="89.8244,-85.035 90.9688,-95.941 88.2596,-89.7838 86.6948,-94.5327 86.6948,-94.5327 86.6948,-94.5327 88.2596,-89.7838 82.4208,-93.1244 89.8244,-85.035 89.8244,-85.035"/>
<text text-anchor="middle" x="88" y="-106" font-family="Courier,monospace" font-size="10.00" fill="#000000">0</text>
</g>
<!-- node0002 -->
<g id="node3" class="node">
<title>node0002</title>
<polygon fill="#009aa6" stroke="#000000" points="121,-151 106,-151 106,-132 121,-132 121,-151"/>
<text text-anchor="middle" x="113.5" y="-139" font-family="Courier,monospace" font-size="10.00" fill="#ffffff">2</text>
</g>
<!-- node0002&#45;&gt;node0000 -->
<g id="edge3" class="edge">
<title>node0002&#45;&gt;node0000</title>
<path fill="none" stroke="#000000" d="M110.5489,-131.7615C107.6243,-122.1102 103.063,-107.058 99.3941,-94.9506"/>
<polygon fill="#000000" stroke="#000000" points="96.4632,-85.2785 103.6699,-93.5437 97.9132,-90.0636 99.3633,-94.8487 99.3633,-94.8487 99.3633,-94.8487 97.9132,-90.0636 95.0567,-96.1538 96.4632,-85.2785 96.4632,-85.2785"/>
<text text-anchor="middle" x="108" y="-106" font-family="Courier,monospace" font-size="10.00" fill="#000000">1</text>
</g>
<!-- node0003 -->
<g id="node4" class="node">
<title>node0003</title>
<polygon fill="#e37222" stroke="#000000" points="47,-85 20,-85 20,-66 47,-66 47,-85"/>
<text text-anchor="middle" x="33.5" y="-73" font-family="Courier,monospace" font-size="10.00" fill="#ffffff">add</text>
</g>
<!-- node0003&#45;&gt;node0006 -->
<g id="edge4" class="edge">
<title>node0003&#45;&gt;node0006</title>
<path fill="none" stroke="#000000" d="M32.1243,-65.8723C31.3993,-57.7986 31.3774,-46.1541 35.5,-37 37.2137,-33.1948 39.7102,-29.6362 42.5169,-26.4241"/>
<polygon fill="#000000" stroke="#000000" points="49.8632,-19.2099 45.8812,-29.4273 46.2957,-22.7133 42.7282,-26.2166 42.7282,-26.2166 42.7282,-26.2166 46.2957,-22.7133 39.5752,-23.0058 49.8632,-19.2099 49.8632,-19.2099"/>
<text text-anchor="middle" x="54" y="-40" font-family="Courier,monospace" font-size="10.00" fill="#000000">height</text>
</g>
<!-- node0004 -->
<g id="node5" class="node">
<title>node0004</title>
<polygon fill="#009aa6" stroke="#000000" points="15,-151 0,-151 0,-132 15,-132 15,-151"/>
<text text-anchor="middle" x="7.5" y="-139" font-family="Courier,monospace" font-size="10.00" fill="#ffffff">3</text>
</g>
<!-- node0004&#45;&gt;node0003 -->
<g id="edge5" class="edge">
<title>node0004&#45;&gt;node0003</title>
<path fill="none" stroke="#000000" d="M11.3364,-131.7615C15.1768,-122.0127 21.1881,-106.7534 25.9818,-94.5846"/>
<polygon fill="#000000" stroke="#000000" points="29.6479,-85.2785 30.1694,-96.232 27.8152,-89.9305 25.9826,-94.5826 25.9826,-94.5826 25.9826,-94.5826 27.8152,-89.9305 21.7957,-92.9332 29.6479,-85.2785 29.6479,-85.2785"/>
<text text-anchor="middle" x="26" y="-106" font-family="Courier,monospace" font-size="10.00" fill="#000000">0</text>
</g>
<!-- node0005 -->
<g id="node6" class="node">
<title>node0005</title>
<polygon fill="#009aa6" stroke="#000000" points="48,-151 33,-151 33,-132 48,-132 48,-151"/>
<text text-anchor="middle" x="40.5" y="-139" font-family="Courier,monospace" font-size="10.00" fill="#ffffff">4</text>
</g>
<!-- node0005&#45;&gt;node0003 -->
<g id="edge6" class="edge">
<title>node0005&#45;&gt;node0003</title>
<path fill="none" stroke="#000000" d="M39.4671,-131.7615C38.4538,-122.2077 36.8793,-107.3615 35.6019,-95.3183"/>
<polygon fill="#000000" stroke="#000000" points="34.5371,-85.2785 40.0668,-94.7481 35.0645,-90.2506 35.5919,-95.2227 35.5919,-95.2227 35.5919,-95.2227 35.0645,-90.2506 31.117,-95.6974 34.5371,-85.2785 34.5371,-85.2785"/>
<text text-anchor="middle" x="40" y="-106" font-family="Courier,monospace" font-size="10.00" fill="#000000">1</text>
</g>
</g>
</svg>
