<?xml version="1.0" encoding="UTF-8" standalone="no"?>
<!DOCTYPE svg PUBLIC "-//W3C//DTD SVG 1.1//EN"
 "http://www.w3.org/Graphics/SVG/1.1/DTD/svg11.dtd">
<!-- Generated by graphviz version 2.40.1 (20161225.0304)
 -->
<!-- Title: G Pages: 1 -->
<svg width="320pt" height="181pt"
 viewBox="0.00 0.00 320.00 181.00" xmlns="http://www.w3.org/2000/svg" xmlns:xlink="http://www.w3.org/1999/xlink">
<g id="graph0" class="graph" transform="scale(1 1) rotate(0) translate(4 177)">
<title>G</title>
<polygon fill="#ffffff" stroke="transparent" points="-4,4 -4,-177 316,-177 316,4 -4,4"/>
<!-- node0000 -->
<g id="node1" class="node">
<title>node0000</title>
<polygon fill="#bb2fed" stroke="#000000" points="312,-107 165,-107 165,-77 312,-77 312,-107"/>
<text text-anchor="middle" x="238.5" y="-95" font-family="Courier,monospace" font-size="10.00" fill="#ffffff">add</text>
<text text-anchor="middle" x="238.5" y="-84" font-family="Courier,monospace" font-size="10.00" fill="#ffffff">JsonFileStore(&#39;x.json&#39;)</text>
</g>
<!-- node0006 -->
<g id="node7" class="node">
<title>node0006</title>
<polygon fill="#bb2fed" stroke="#000000" points="229,-30 82,-30 82,0 229,0 229,-30"/>
<text text-anchor="middle" x="155.5" y="-18" font-family="Courier,monospace" font-size="10.00" fill="#ffffff">area</text>
<text text-anchor="middle" x="155.5" y="-7" font-family="Courier,monospace" font-size="10.00" fill="#ffffff">JsonFileStore(&#39;z.json&#39;)</text>
</g>
<!-- node0000&#45;&gt;node0006 -->
<g id="edge1" class="edge">
<title>node0000&#45;&gt;node0006</title>
<path fill="none" stroke="#000000" d="M222.1019,-76.7873C209.9381,-65.5028 193.1658,-49.943 179.4959,-37.2613"/>
<polygon fill="#000000" stroke="#000000" points="171.8641,-30.1811 182.2557,-33.6833 175.5296,-33.5817 179.1952,-36.9823 179.1952,-36.9823 179.1952,-36.9823 175.5296,-33.5817 176.1347,-40.2813 171.8641,-30.1811 171.8641,-30.1811"/>
<text text-anchor="middle" x="217" y="-51" font-family="Courier,monospace" font-size="10.00" fill="#000000">width</text>
</g>
<!-- node0001 -->
<g id="node2" class="node">
<title>node0001</title>
<polygon fill="#009aa6" stroke="#000000" points="229,-173 214,-173 214,-154 229,-154 229,-173"/>
<text text-anchor="middle" x="221.5" y="-161" font-family="Courier,monospace" font-size="10.00" fill="#ffffff">1</text>
</g>
<!-- node0001&#45;&gt;node0000 -->
<g id="edge2" class="edge">
<title>node0001&#45;&gt;node0000</title>
<path fill="none" stroke="#000000" d="M223.7927,-153.8572C226.016,-144.5064 229.485,-129.9159 232.4957,-117.2534"/>
<polygon fill="#000000" stroke="#000000" points="234.8795,-107.2276 236.9442,-117.9973 233.7229,-112.092 232.5662,-116.9564 232.5662,-116.9564 232.5662,-116.9564 233.7229,-112.092 228.1883,-115.9154 234.8795,-107.2276 234.8795,-107.2276"/>
<text text-anchor="middle" x="234" y="-128" font-family="Courier,monospace" font-size="10.00" fill="#000000">0</text>
</g>
<!-- node0002 -->
<g id="node3" class="node">
<title>node0002</title>
<polygon fill="#009aa6" stroke="#000000" points="262,-173 247,-173 247,-154 262,-154 262,-173"/>
<text text-anchor="middle" x="254.5" y="-161" font-family="Courier,monospace" font-size="10.00" fill="#ffffff">2</text>
</g>
<!-- node0002&#45;&gt;node0000 -->
<g id="edge3" class="edge">
<title>node0002&#45;&gt;node0000</title>
<path fill="none" stroke="#000000" d="M252.3422,-153.8572C250.2497,-144.5064 246.9847,-129.9159 244.1511,-117.2534"/>
<polygon fill="#000000" stroke="#000000" points="241.9076,-107.2276 248.4828,-116.0035 242.9995,-112.1069 244.0914,-116.9862 244.0914,-116.9862 244.0914,-116.9862 242.9995,-112.1069 239.7,-117.969 241.9076,-107.2276 241.9076,-107.2276"/>
<text text-anchor="middle" x="251" y="-128" font-family="Courier,monospace" font-size="10.00" fill="#000000">1</text>
</g>
<!-- node0003 -->
<g id="node4" class="node">
<title>node0003</title>
<polygon fill="#bb2fed" stroke="#000000" points="147,-107 0,-107 0,-77 147,-77 147,-107"/>
<text text-anchor="middle" x="73.5" y="-95" font-family="Courier,monospace" font-size="10.00" fill="#ffffff">add</text>
<text text-anchor="middle" x="73.5" y="-84" font-family="Courier,monospace" font-size="10.00" fill="#ffffff">JsonFileStore(&#39;y.json&#39;)</text>
</g>
<!-- node0003&#45;&gt;node0006 -->
<g id="edge4" class="edge">
<title>node0003&#45;&gt;node0006</title>
<path fill="none" stroke="#000000" d="M89.7006,-76.7873C101.7178,-65.5028 118.288,-49.943 131.7932,-37.2613"/>
<polygon fill="#000000" stroke="#000000" points="139.3331,-30.1811 135.1237,-40.3069 135.6882,-33.6038 132.0432,-37.0265 132.0432,-37.0265 132.0432,-37.0265 135.6882,-33.6038 128.9628,-33.746 139.3331,-30.1811 139.3331,-30.1811"/>
<text text-anchor="middle" x="138" y="-51" font-family="Courier,monospace" font-size="10.00" fill="#000000">height</text>
</g>
<!-- node0004 -->
<g id="node5" class="node">
<title>node0004</title>
<polygon fill="#009aa6" stroke="#000000" points="65,-173 50,-173 50,-154 65,-154 65,-173"/>
<text text-anchor="middle" x="57.5" y="-161" font-family="Courier,monospace" font-size="10.00" fill="#ffffff">3</text>
</g>
<!-- node0004&#45;&gt;node0003 -->
<g id="edge5" class="edge">
<title>node0004&#45;&gt;node0003</title>
<path fill="none" stroke="#000000" d="M57.8444,-153.9001C58.2815,-146.0457 59.2699,-134.6924 61.5,-125 62.1194,-122.308 62.8955,-119.5351 63.7534,-116.7943"/>
<polygon fill="#000000" stroke="#000000" points="67.0854,-107.2094 68.0522,-118.1326 65.4436,-111.9321 63.8017,-116.6549 63.8017,-116.6549 63.8017,-116.6549 65.4436,-111.9321 59.5513,-115.1773 67.0854,-107.2094 67.0854,-107.2094"/>
<text text-anchor="middle" x="65" y="-128" font-family="Courier,monospace" font-size="10.00" fill="#000000">0</text>
</g>
<!-- node0005 -->
<g id="node6" class="node">
<title>node0005</title>
<polygon fill="#009aa6" stroke="#000000" points="98,-173 83,-173 83,-154 98,-154 98,-173"/>
<text text-anchor="middle" x="90.5" y="-161" font-family="Courier,monospace" font-size="10.00" fill="#ffffff">4</text>
</g>
<!-- node0005&#45;&gt;node0003 -->
<g id="edge6" class="edge">
<title>node0005&#45;&gt;node0003</title>
<path fill="none" stroke="#000000" d="M88.2073,-153.8572C85.984,-144.5064 82.515,-129.9159 79.5043,-117.2534"/>
<polygon fill="#000000" stroke="#000000" points="77.1205,-107.2276 83.8117,-115.9154 78.2771,-112.092 79.4338,-116.9564 79.4338,-116.9564 79.4338,-116.9564 78.2771,-112.092 75.0558,-117.9973 77.1205,-107.2276 77.1205,-107.2276"/>
<text text-anchor="middle" x="88" y="-128" font-family="Courier,monospace" font-size="10.00" fill="#000000">1</text>
</g>
</g>
</svg>
