<?xml version="1.0" encoding="UTF-8" standalone="no"?>
<!DOCTYPE svg PUBLIC "-//W3C//DTD SVG 1.1//EN"
 "http://www.w3.org/Graphics/SVG/1.1/DTD/svg11.dtd">
<!-- Generated by graphviz version 2.40.1 (20161225.0304)
 -->
<!-- Title: G Pages: 1 -->
<svg width="83pt" height="159pt"
 viewBox="0.00 0.00 83.00 159.00" xmlns="http://www.w3.org/2000/svg" xmlns:xlink="http://www.w3.org/1999/xlink">
<g id="graph0" class="graph" transform="scale(1 1) rotate(0) translate(4 155)">
<title>G</title>
<polygon fill="#ffffff" stroke="transparent" points="-4,4 -4,-155 79,-155 79,4 -4,4"/>
<!-- node0000 -->
<g id="node1" class="node">
<title>node0000</title>
<polygon fill="#009aa6" stroke="#000000" points="29,-151 14,-151 14,-132 29,-132 29,-151"/>
<text text-anchor="middle" x="21.5" y="-139" font-family="Courier,monospace" font-size="10.00" fill="#ffffff">1</text>
</g>
<!-- node0003 -->
<g id="node4" class="node">
<title>node0003</title>
<polygon fill="#e37222" stroke="#000000" points="75,-85 0,-85 0,-66 75,-66 75,-85"/>
<text text-anchor="middle" x="37.5" y="-73" font-family="Courier,monospace" font-size="10.00" fill="#ffffff">gather_list</text>
</g>
<!-- node0000&#45;&gt;node0003 -->
<g id="edge1" class="edge">
<title>node0000&#45;&gt;node0003</title>
<path fill="none" stroke="#000000" d="M21.6828,-131.8602C22.0261,-123.9828 22.9673,-112.6177 25.5,-103 26.2333,-100.2153 27.2095,-97.3509 28.2895,-94.5711"/>
<polygon fill="#000000" stroke="#000000" points="32.4086,-85.1647 32.5193,-96.13 30.4029,-89.7448 28.3972,-94.3249 28.3972,-94.3249 28.3972,-94.3249 30.4029,-89.7448 24.2751,-92.5197 32.4086,-85.1647 32.4086,-85.1647"/>
<text text-anchor="middle" x="29" y="-106" font-family="Courier,monospace" font-size="10.00" fill="#000000">0</text>
</g>
<!-- node0001 -->
<g id="node2" class="node">
<title>node0001</title>
<polygon fill="#009aa6" stroke="#000000" points="62,-151 47,-151 47,-132 62,-132 62,-151"/>
<text text-anchor="middle" x="54.5" y="-139" font-family="Courier,monospace" font-size="10.00" fill="#ffffff">2</text>
</g>
<!-- node0001&#45;&gt;node0003 -->
<g id="edge2" class="edge">
<title>node0001&#45;&gt;node0003</title>
<path fill="none" stroke="#000000" d="M51.9916,-131.7615C49.5308,-122.2077 45.7068,-107.3615 42.6047,-95.3183"/>
<polygon fill="#000000" stroke="#000000" points="40.0187,-85.2785 46.8709,-93.8399 41.2659,-90.1204 42.5131,-94.9624 42.5131,-94.9624 42.5131,-94.9624 41.2659,-90.1204 38.1554,-96.0849 40.0187,-85.2785 40.0187,-85.2785"/>
<text text-anchor="middle" x="50" y="-106" font-family="Courier,monospace" font-size="10.00" fill="#000000">1</text>
</g>
<!-- node0002 -->
<g id="node3" class="node">
<title>node0002</title>
<polygon fill="#e37222" stroke="#000000" points="51,-19 24,-19 24,0 51,0 51,-19"/>
<text text-anchor="middle" x="37.5" y="-7" font-family="Courier,monospace" font-size="10.00" fill="#ffffff">sum</text>
</g>
<!-- node0003&#45;&gt;node0002 -->
<g id="edge3" class="edge">
<title>node0003&#45;&gt;node0002</title>
<path fill="none" stroke="#000000" d="M37.5,-65.7615C37.5,-56.2077 37.5,-41.3615 37.5,-29.3183"/>
<polygon fill="#000000" stroke="#000000" points="37.5,-19.2785 42.0001,-29.2784 37.5,-24.2785 37.5001,-29.2785 37.5001,-29.2785 37.5001,-29.2785 37.5,-24.2785 33.0001,-29.2785 37.5,-19.2785 37.5,-19.2785"/>
<text text-anchor="middle" x="41" y="-40" font-family="Courier,monospace" font-size="10.00" fill="#000000">0</text>
</g>
</g>
</svg>
