<?xml version="1.0" encoding="UTF-8" standalone="no"?>
<!DOCTYPE svg PUBLIC "-//W3C//DTD SVG 1.1//EN"
 "http://www.w3.org/Graphics/SVG/1.1/DTD/svg11.dtd">
<!-- Generated by graphviz version 2.40.1 (20161225.0304)
 -->
<!-- Title: G Pages: 1 -->
<svg width="187pt" height="423pt"
 viewBox="0.00 0.00 187.00 423.00" xmlns="http://www.w3.org/2000/svg" xmlns:xlink="http://www.w3.org/1999/xlink">
<g id="graph0" class="graph" transform="scale(1 1) rotate(0) translate(4 419)">
<title>G</title>
<polygon fill="#ffffff" stroke="transparent" points="-4,4 -4,-419 183,-419 183,4 -4,4"/>
<!-- node0000 -->
<g id="node1" class="node">
<title>node0000</title>
<polygon fill="#e37222" stroke="#000000" points="27,-151 0,-151 0,-132 27,-132 27,-151"/>
<text text-anchor="middle" x="13.5" y="-139" font-family="Courier,monospace" font-size="10.00" fill="#ffffff">neg</text>
</g>
<!-- node0012 -->
<g id="node13" class="node">
<title>node0012</title>
<polygon fill="#e37222" stroke="#000000" points="67,-85 40,-85 40,-66 67,-66 67,-85"/>
<text text-anchor="middle" x="53.5" y="-73" font-family="Courier,monospace" font-size="10.00" fill="#ffffff">add</text>
</g>
<!-- node0000&#45;&gt;node0012 -->
<g id="edge1" class="edge">
<title>node0000&#45;&gt;node0012</title>
<path fill="none" stroke="#000000" d="M12.116,-131.6916C11.4431,-123.5076 11.6373,-111.8026 16.5,-103 19.9032,-96.8394 25.3343,-91.6663 30.9984,-87.5292"/>
<polygon fill="#000000" stroke="#000000" points="39.8332,-81.8878 33.8267,-91.0624 35.619,-84.5788 31.4049,-87.2697 31.4049,-87.2697 31.4049,-87.2697 35.619,-84.5788 28.983,-83.477 39.8332,-81.8878 39.8332,-81.8878"/>
<text text-anchor="middle" x="20" y="-106" font-family="Courier,monospace" font-size="10.00" fill="#000000">0</text>
</g>
<!-- node0013 -->
<g id="node14" class="node">
<title>node0013</title>
<polygon fill="#e37222" stroke="#000000" points="112,-85 85,-85 85,-66 112,-66 112,-85"/>
<text text-anchor="middle" x="98.5" y="-73" font-family="Courier,monospace" font-size="10.00" fill="#ffffff">sub</text>
</g>
<!-- node0000&#45;&gt;node0013 -->
<g id="edge2" class="edge">
<title>node0000&#45;&gt;node0013</title>
<path fill="none" stroke="#000000" d="M22.5082,-131.7082C30.2897,-123.5343 42.0556,-111.8348 53.5,-103 60.4304,-97.6499 68.4621,-92.4596 75.8053,-88.0563"/>
<polygon fill="#000000" stroke="#000000" points="84.6039,-82.9469 78.2161,-91.8602 80.2801,-85.4578 75.9562,-87.9687 75.9562,-87.9687 75.9562,-87.9687 80.2801,-85.4578 73.6964,-84.0773 84.6039,-82.9469 84.6039,-82.9469"/>
<text text-anchor="middle" x="57" y="-106" font-family="Courier,monospace" font-size="10.00" fill="#000000">0</text>
</g>
<!-- node0001 -->
<g id="node2" class="node">
<title>node0001</title>
<polygon fill="#009aa6" stroke="#000000" points="21,-217 6,-217 6,-198 21,-198 21,-217"/>
<text text-anchor="middle" x="13.5" y="-205" font-family="Courier,monospace" font-size="10.00" fill="#ffffff">6</text>
</g>
<!-- node0001&#45;&gt;node0000 -->
<g id="edge3" class="edge">
<title>node0001&#45;&gt;node0000</title>
<path fill="none" stroke="#000000" d="M13.5,-197.7615C13.5,-188.2077 13.5,-173.3615 13.5,-161.3183"/>
<polygon fill="#000000" stroke="#000000" points="13.5,-151.2785 18.0001,-161.2784 13.5,-156.2785 13.5001,-161.2785 13.5001,-161.2785 13.5001,-161.2785 13.5,-156.2785 9.0001,-161.2785 13.5,-151.2785 13.5,-151.2785"/>
<text text-anchor="middle" x="17" y="-172" font-family="Courier,monospace" font-size="10.00" fill="#000000">0</text>
</g>
<!-- node0002 -->
<g id="node3" class="node">
<title>node0002</title>
<polygon fill="#e37222" stroke="#000000" points="69,-283 42,-283 42,-264 69,-264 69,-283"/>
<text text-anchor="middle" x="55.5" y="-271" font-family="Courier,monospace" font-size="10.00" fill="#ffffff">mul</text>
</g>
<!-- node0010 -->
<g id="node11" class="node">
<title>node0010</title>
<polygon fill="#e37222" stroke="#000000" points="93,-217 66,-217 66,-198 93,-198 93,-217"/>
<text text-anchor="middle" x="79.5" y="-205" font-family="Courier,monospace" font-size="10.00" fill="#ffffff">sub</text>
</g>
<!-- node0002&#45;&gt;node0010 -->
<g id="edge4" class="edge">
<title>node0002&#45;&gt;node0010</title>
<path fill="none" stroke="#000000" d="M59.0413,-263.7615C62.5508,-254.1102 68.0244,-239.058 72.4271,-226.9506"/>
<polygon fill="#000000" stroke="#000000" points="75.9442,-217.2785 76.7558,-228.2143 74.2354,-221.9775 72.5267,-226.6764 72.5267,-226.6764 72.5267,-226.6764 74.2354,-221.9775 68.2976,-225.1385 75.9442,-217.2785 75.9442,-217.2785"/>
<text text-anchor="middle" x="72" y="-238" font-family="Courier,monospace" font-size="10.00" fill="#000000">0</text>
</g>
<!-- node0003 -->
<g id="node4" class="node">
<title>node0003</title>
<polygon fill="#009aa6" stroke="#000000" points="31,-349 16,-349 16,-330 31,-330 31,-349"/>
<text text-anchor="middle" x="23.5" y="-337" font-family="Courier,monospace" font-size="10.00" fill="#ffffff">6</text>
</g>
<!-- node0003&#45;&gt;node0002 -->
<g id="edge5" class="edge">
<title>node0003&#45;&gt;node0002</title>
<path fill="none" stroke="#000000" d="M28.2217,-329.7615C32.9484,-320.0127 40.3468,-304.7534 46.2469,-292.5846"/>
<polygon fill="#000000" stroke="#000000" points="50.7589,-283.2785 50.4453,-294.2399 48.5775,-287.7776 46.3961,-292.2766 46.3961,-292.2766 46.3961,-292.2766 48.5775,-287.7776 42.347,-290.3134 50.7589,-283.2785 50.7589,-283.2785"/>
<text text-anchor="middle" x="44" y="-304" font-family="Courier,monospace" font-size="10.00" fill="#000000">0</text>
</g>
<!-- node0004 -->
<g id="node5" class="node">
<title>node0004</title>
<polygon fill="#009aa6" stroke="#000000" points="64,-349 49,-349 49,-330 64,-330 64,-349"/>
<text text-anchor="middle" x="56.5" y="-337" font-family="Courier,monospace" font-size="10.00" fill="#ffffff">6</text>
</g>
<!-- node0004&#45;&gt;node0002 -->
<g id="edge6" class="edge">
<title>node0004&#45;&gt;node0002</title>
<path fill="none" stroke="#000000" d="M56.3524,-329.7615C56.2077,-320.2077 55.9828,-305.3615 55.8003,-293.3183"/>
<polygon fill="#000000" stroke="#000000" points="55.6482,-283.2785 60.2992,-293.2091 55.724,-288.2779 55.7998,-293.2773 55.7998,-293.2773 55.7998,-293.2773 55.724,-288.2779 51.3003,-293.3456 55.6482,-283.2785 55.6482,-283.2785"/>
<text text-anchor="middle" x="59" y="-304" font-family="Courier,monospace" font-size="10.00" fill="#000000">1</text>
</g>
<!-- node0005 -->
<g id="node6" class="node">
<title>node0005</title>
<polygon fill="#e37222" stroke="#000000" points="110,-349 83,-349 83,-330 110,-330 110,-349"/>
<text text-anchor="middle" x="96.5" y="-337" font-family="Courier,monospace" font-size="10.00" fill="#ffffff">mul</text>
</g>
<!-- node0008 -->
<g id="node9" class="node">
<title>node0008</title>
<polygon fill="#e37222" stroke="#000000" points="114,-283 87,-283 87,-264 114,-264 114,-283"/>
<text text-anchor="middle" x="100.5" y="-271" font-family="Courier,monospace" font-size="10.00" fill="#ffffff">mul</text>
</g>
<!-- node0005&#45;&gt;node0008 -->
<g id="edge7" class="edge">
<title>node0005&#45;&gt;node0008</title>
<path fill="none" stroke="#000000" d="M97.0902,-329.7615C97.6692,-320.2077 98.569,-305.3615 99.2989,-293.3183"/>
<polygon fill="#000000" stroke="#000000" points="99.9074,-283.2785 103.7941,-293.5324 99.6048,-288.2693 99.3023,-293.2602 99.3023,-293.2602 99.3023,-293.2602 99.6048,-288.2693 94.8106,-292.9879 99.9074,-283.2785 99.9074,-283.2785"/>
<text text-anchor="middle" x="102" y="-304" font-family="Courier,monospace" font-size="10.00" fill="#000000">1</text>
</g>
<!-- node0006 -->
<g id="node7" class="node">
<title>node0006</title>
<polygon fill="#009aa6" stroke="#000000" points="87,-415 72,-415 72,-396 87,-396 87,-415"/>
<text text-anchor="middle" x="79.5" y="-403" font-family="Courier,monospace" font-size="10.00" fill="#ffffff">5</text>
</g>
<!-- node0006&#45;&gt;node0005 -->
<g id="edge8" class="edge">
<title>node0006&#45;&gt;node0005</title>
<path fill="none" stroke="#000000" d="M82.0084,-395.7615C84.4692,-386.2077 88.2932,-371.3615 91.3953,-359.3183"/>
<polygon fill="#000000" stroke="#000000" points="93.9813,-349.2785 95.8446,-360.0849 92.7341,-354.1204 91.4869,-358.9624 91.4869,-358.9624 91.4869,-358.9624 92.7341,-354.1204 87.1291,-357.8399 93.9813,-349.2785 93.9813,-349.2785"/>
<text text-anchor="middle" x="92" y="-370" font-family="Courier,monospace" font-size="10.00" fill="#000000">0</text>
</g>
<!-- node0007 -->
<g id="node8" class="node">
<title>node0007</title>
<polygon fill="#009aa6" stroke="#000000" points="120,-415 105,-415 105,-396 120,-396 120,-415"/>
<text text-anchor="middle" x="112.5" y="-403" font-family="Courier,monospace" font-size="10.00" fill="#ffffff">1</text>
</g>
<!-- node0007&#45;&gt;node0005 -->
<g id="edge9" class="edge">
<title>node0007&#45;&gt;node0005</title>
<path fill="none" stroke="#000000" d="M110.1391,-395.7615C107.8231,-386.2077 104.224,-371.3615 101.3044,-359.3183"/>
<polygon fill="#000000" stroke="#000000" points="98.8705,-349.2785 105.5999,-357.9368 100.0486,-354.1377 101.2266,-358.997 101.2266,-358.997 101.2266,-358.997 100.0486,-354.1377 96.8533,-360.0572 98.8705,-349.2785 98.8705,-349.2785"/>
<text text-anchor="middle" x="108" y="-370" font-family="Courier,monospace" font-size="10.00" fill="#000000">1</text>
</g>
<!-- node0008&#45;&gt;node0010 -->
<g id="edge10" class="edge">
<title>node0008&#45;&gt;node0010</title>
<path fill="none" stroke="#000000" d="M97.4014,-263.7615C94.3305,-254.1102 89.5412,-239.058 85.6888,-226.9506"/>
<polygon fill="#000000" stroke="#000000" points="82.6113,-217.2785 89.9316,-225.4433 84.1274,-222.0431 85.6434,-226.8077 85.6434,-226.8077 85.6434,-226.8077 84.1274,-222.0431 81.3553,-228.1722 82.6113,-217.2785 82.6113,-217.2785"/>
<text text-anchor="middle" x="94" y="-238" font-family="Courier,monospace" font-size="10.00" fill="#000000">1</text>
</g>
<!-- node0009 -->
<g id="node10" class="node">
<title>node0009</title>
<polygon fill="#009aa6" stroke="#000000" points="143,-349 128,-349 128,-330 143,-330 143,-349"/>
<text text-anchor="middle" x="135.5" y="-337" font-family="Courier,monospace" font-size="10.00" fill="#ffffff">4</text>
</g>
<!-- node0009&#45;&gt;node0008 -->
<g id="edge11" class="edge">
<title>node0009&#45;&gt;node0008</title>
<path fill="none" stroke="#000000" d="M130.3356,-329.7615C125.1141,-319.9152 116.9116,-304.4476 110.4275,-292.2204"/>
<polygon fill="#000000" stroke="#000000" points="105.6856,-283.2785 114.3462,-290.0048 108.0281,-287.6958 110.3706,-292.1131 110.3706,-292.1131 110.3706,-292.1131 108.0281,-287.6958 106.3951,-294.2214 105.6856,-283.2785 105.6856,-283.2785"/>
<text text-anchor="middle" x="123" y="-304" font-family="Courier,monospace" font-size="10.00" fill="#000000">0</text>
</g>
<!-- node0011 -->
<g id="node12" class="node">
<title>node0011</title>
<polygon fill="#e37222" stroke="#000000" points="111,-151 48,-151 48,-132 111,-132 111,-151"/>
<text text-anchor="middle" x="79.5" y="-139" font-family="Courier,monospace" font-size="10.00" fill="#ffffff">math.sqrt</text>
</g>
<!-- node0010&#45;&gt;node0011 -->
<g id="edge12" class="edge">
<title>node0010&#45;&gt;node0011</title>
<path fill="none" stroke="#000000" d="M79.5,-197.7615C79.5,-188.2077 79.5,-173.3615 79.5,-161.3183"/>
<polygon fill="#000000" stroke="#000000" points="79.5,-151.2785 84.0001,-161.2784 79.5,-156.2785 79.5001,-161.2785 79.5001,-161.2785 79.5001,-161.2785 79.5,-156.2785 75.0001,-161.2785 79.5,-151.2785 79.5,-151.2785"/>
<text text-anchor="middle" x="83" y="-172" font-family="Courier,monospace" font-size="10.00" fill="#000000">0</text>
</g>
<!-- node0011&#45;&gt;node0012 -->
<g id="edge13" class="edge">
<title>node0011&#45;&gt;node0012</title>
<path fill="none" stroke="#000000" d="M75.6636,-131.7615C71.8232,-122.0127 65.8119,-106.7534 61.0182,-94.5846"/>
<polygon fill="#000000" stroke="#000000" points="57.3521,-85.2785 65.2043,-92.9332 59.1848,-89.9305 61.0174,-94.5826 61.0174,-94.5826 61.0174,-94.5826 59.1848,-89.9305 56.8306,-96.232 57.3521,-85.2785 57.3521,-85.2785"/>
<text text-anchor="middle" x="71" y="-106" font-family="Courier,monospace" font-size="10.00" fill="#000000">1</text>
</g>
<!-- node0011&#45;&gt;node0013 -->
<g id="edge14" class="edge">
<title>node0011&#45;&gt;node0013</title>
<path fill="none" stroke="#000000" d="M82.3035,-131.7615C85.0819,-122.1102 89.4151,-107.058 92.9006,-94.9506"/>
<polygon fill="#000000" stroke="#000000" points="95.685,-85.2785 97.2429,-96.1331 94.3017,-90.0833 92.9185,-94.8882 92.9185,-94.8882 92.9185,-94.8882 94.3017,-90.0833 88.5941,-93.6433 95.685,-85.2785 95.685,-85.2785"/>
<text text-anchor="middle" x="93" y="-106" font-family="Courier,monospace" font-size="10.00" fill="#000000">1</text>
</g>
<!-- node0017 -->
<g id="node18" class="node">
<title>node0017</title>
<polygon fill="#e37222" stroke="#000000" points="96,-19 45,-19 45,0 96,0 96,-19"/>
<text text-anchor="middle" x="70.5" y="-7" font-family="Courier,monospace" font-size="10.00" fill="#ffffff">truediv</text>
</g>
<!-- node0012&#45;&gt;node0017 -->
<g id="edge15" class="edge">
<title>node0012&#45;&gt;node0017</title>
<path fill="none" stroke="#000000" d="M56.0084,-65.7615C58.4692,-56.2077 62.2932,-41.3615 65.3953,-29.3183"/>
<polygon fill="#000000" stroke="#000000" points="67.9813,-19.2785 69.8446,-30.0849 66.7341,-24.1204 65.4869,-28.9624 65.4869,-28.9624 65.4869,-28.9624 66.7341,-24.1204 61.1291,-27.8399 67.9813,-19.2785 67.9813,-19.2785"/>
<text text-anchor="middle" x="66" y="-40" font-family="Courier,monospace" font-size="10.00" fill="#000000">0</text>
</g>
<!-- node0018 -->
<g id="node19" class="node">
<title>node0018</title>
<polygon fill="#e37222" stroke="#000000" points="170,-19 119,-19 119,0 170,0 170,-19"/>
<text text-anchor="middle" x="144.5" y="-7" font-family="Courier,monospace" font-size="10.00" fill="#ffffff">truediv</text>
</g>
<!-- node0013&#45;&gt;node0018 -->
<g id="edge16" class="edge">
<title>node0013&#45;&gt;node0018</title>
<path fill="none" stroke="#000000" d="M95.6356,-65.9657C93.7445,-57.7359 92.444,-45.8162 97.5,-37 100.513,-31.7463 104.9612,-27.3999 109.9377,-23.8357"/>
<polygon fill="#000000" stroke="#000000" points="118.6514,-18.5538 112.4325,-27.5857 114.3756,-21.1456 110.0998,-23.7375 110.0998,-23.7375 110.0998,-23.7375 114.3756,-21.1456 107.7672,-19.8892 118.6514,-18.5538 118.6514,-18.5538"/>
<text text-anchor="middle" x="101" y="-40" font-family="Courier,monospace" font-size="10.00" fill="#000000">0</text>
</g>
<!-- node0014 -->
<g id="node15" class="node">
<title>node0014</title>
<polygon fill="#e37222" stroke="#000000" points="162,-85 135,-85 135,-66 162,-66 162,-85"/>
<text text-anchor="middle" x="148.5" y="-73" font-family="Courier,monospace" font-size="10.00" fill="#ffffff">mul</text>
</g>
<!-- node0014&#45;&gt;node0017 -->
<g id="edge17" class="edge">
<title>node0014&#45;&gt;node0017</title>
<path fill="none" stroke="#000000" d="M136.9908,-65.7615C124.5923,-55.2704 104.6515,-38.3974 89.8371,-25.8622"/>
<polygon fill="#000000" stroke="#000000" points="81.8028,-19.0639 92.3434,-22.0881 85.6197,-22.2936 89.4367,-25.5234 89.4367,-25.5234 89.4367,-25.5234 85.6197,-22.2936 86.5299,-28.9586 81.8028,-19.0639 81.8028,-19.0639"/>
<text text-anchor="middle" x="117" y="-40" font-family="Courier,monospace" font-size="10.00" fill="#000000">1</text>
</g>
<!-- node0014&#45;&gt;node0018 -->
<g id="edge18" class="edge">
<title>node0014&#45;&gt;node0018</title>
<path fill="none" stroke="#000000" d="M147.9098,-65.7615C147.3308,-56.2077 146.431,-41.3615 145.7011,-29.3183"/>
<polygon fill="#000000" stroke="#000000" points="145.0926,-19.2785 150.1894,-28.9879 145.3952,-24.2693 145.6977,-29.2602 145.6977,-29.2602 145.6977,-29.2602 145.3952,-24.2693 141.2059,-29.5324 145.0926,-19.2785 145.0926,-19.2785"/>
<text text-anchor="middle" x="150" y="-40" font-family="Courier,monospace" font-size="10.00" fill="#000000">1</text>
</g>
<!-- node0015 -->
<g id="node16" class="node">
<title>node0015</title>
<polygon fill="#009aa6" stroke="#000000" points="146,-151 131,-151 131,-132 146,-132 146,-151"/>
<text text-anchor="middle" x="138.5" y="-139" font-family="Courier,monospace" font-size="10.00" fill="#ffffff">2</text>
</g>
<!-- node0015&#45;&gt;node0014 -->
<g id="edge19" class="edge">
<title>node0015&#45;&gt;node0014</title>
<path fill="none" stroke="#000000" d="M139.1934,-131.9682C139.833,-124.1533 140.9236,-112.8199 142.5,-103 142.9202,-100.3825 143.4317,-97.6394 143.977,-94.9415"/>
<polygon fill="#000000" stroke="#000000" points="146.1255,-85.1224 148.384,-95.8532 145.0567,-90.0068 143.9879,-94.8913 143.9879,-94.8913 143.9879,-94.8913 145.0567,-90.0068 139.5919,-93.9294 146.1255,-85.1224 146.1255,-85.1224"/>
<text text-anchor="middle" x="146" y="-106" font-family="Courier,monospace" font-size="10.00" fill="#000000">0</text>
</g>
<!-- node0016 -->
<g id="node17" class="node">
<title>node0016</title>
<polygon fill="#009aa6" stroke="#000000" points="179,-151 164,-151 164,-132 179,-132 179,-151"/>
<text text-anchor="middle" x="171.5" y="-139" font-family="Courier,monospace" font-size="10.00" fill="#ffffff">5</text>
</g>
<!-- node0016&#45;&gt;node0014 -->
<g id="edge20" class="edge">
<title>node0016&#45;&gt;node0014</title>
<path fill="none" stroke="#000000" d="M168.1063,-131.7615C164.743,-122.1102 159.4975,-107.058 155.2782,-94.9506"/>
<polygon fill="#000000" stroke="#000000" points="151.9077,-85.2785 159.4478,-93.2407 153.5531,-90 155.1985,-94.7215 155.1985,-94.7215 155.1985,-94.7215 153.5531,-90 150.9491,-96.2024 151.9077,-85.2785 151.9077,-85.2785"/>
<text text-anchor="middle" x="164" y="-106" font-family="Courier,monospace" font-size="10.00" fill="#000000">1</text>
</g>
</g>
</svg>
