<?xml version="1.0" encoding="UTF-8" standalone="no"?>
<!DOCTYPE svg PUBLIC "-//W3C//DTD SVG 1.1//EN"
 "http://www.w3.org/Graphics/SVG/1.1/DTD/svg11.dtd">
<!-- Generated by graphviz version 2.40.1 (20161225.0304)
 -->
<!-- Title: G Pages: 1 -->
<svg width="122pt" height="225pt"
 viewBox="0.00 0.00 121.50 225.00" xmlns="http://www.w3.org/2000/svg" xmlns:xlink="http://www.w3.org/1999/xlink">
<g id="graph0" class="graph" transform="scale(1 1) rotate(0) translate(4 221)">
<title>G</title>
<polygon fill="#ffffff" stroke="transparent" points="-4,4 -4,-221 117.5,-221 117.5,4 -4,4"/>
<!-- node0000 -->
<g id="node1" class="node">
<title>node0000</title>
<polygon fill="#e37222" stroke="#000000" points="97,-151 70,-151 70,-132 97,-132 97,-151"/>
<text text-anchor="middle" x="83.5" y="-139" font-family="Courier,monospace" font-size="10.00" fill="#ffffff">add</text>
</g>
<!-- node0003 -->
<g id="node4" class="node">
<title>node0003</title>
<polygon fill="#e37222" stroke="#000000" points="53,-85 26,-85 26,-66 53,-66 53,-85"/>
<text text-anchor="middle" x="39.5" y="-73" font-family="Courier,monospace" font-size="10.00" fill="#ffffff">add</text>
</g>
<!-- node0000&#45;&gt;node0003 -->
<g id="edge2" class="edge">
<title>node0000&#45;&gt;node0003</title>
<path fill="none" stroke="#000000" stroke-dasharray="5,2" d="M77.0076,-131.7615C70.3785,-121.8178 59.9272,-106.1408 51.7388,-93.8582"/>
<polygon fill="#000000" stroke="#000000" points="46.019,-85.2785 55.3103,-91.1028 48.7925,-89.4387 51.566,-93.599 51.566,-93.599 51.566,-93.599 48.7925,-89.4387 47.8218,-96.0952 46.019,-85.2785 46.019,-85.2785"/>
</g>
<!-- node0006 -->
<g id="node7" class="node">
<title>node0006</title>
<polygon fill="#e37222" stroke="#000000" points="81,-19 48,-19 48,0 81,0 81,-19"/>
<text text-anchor="middle" x="64.5" y="-7" font-family="Courier,monospace" font-size="10.00" fill="#ffffff">area</text>
</g>
<!-- node0000&#45;&gt;node0006 -->
<g id="edge1" class="edge">
<title>node0000&#45;&gt;node0006</title>
<path fill="none" stroke="#000000" d="M83.9473,-131.8232C84.5704,-113.1759 84.8135,-71.0943 76.5,-37 75.8178,-34.2023 74.8707,-31.3306 73.8049,-28.5472"/>
<polygon fill="#000000" stroke="#000000" points="69.6841,-19.1412 77.8187,-26.495 71.6905,-23.721 73.6969,-28.3008 73.6969,-28.3008 73.6969,-28.3008 71.6905,-23.721 69.5751,-30.1065 69.6841,-19.1412 69.6841,-19.1412"/>
<text text-anchor="middle" x="98" y="-73" font-family="Courier,monospace" font-size="10.00" fill="#000000">width</text>
</g>
<!-- node0001 -->
<g id="node2" class="node">
<title>node0001</title>
<polygon fill="#009aa6" stroke="#000000" points="75,-217 60,-217 60,-198 75,-198 75,-217"/>
<text text-anchor="middle" x="67.5" y="-205" font-family="Courier,monospace" font-size="10.00" fill="#ffffff">1</text>
</g>
<!-- node0001&#45;&gt;node0000 -->
<g id="edge3" class="edge">
<title>node0001&#45;&gt;node0000</title>
<path fill="none" stroke="#000000" d="M67.6828,-197.8602C68.0261,-189.9828 68.9673,-178.6177 71.5,-169 72.2333,-166.2153 73.2095,-163.3509 74.2895,-160.5711"/>
<polygon fill="#000000" stroke="#000000" points="78.4086,-151.1647 78.5193,-162.13 76.4029,-155.7448 74.3972,-160.3249 74.3972,-160.3249 74.3972,-160.3249 76.4029,-155.7448 70.2751,-158.5197 78.4086,-151.1647 78.4086,-151.1647"/>
<text text-anchor="middle" x="75" y="-172" font-family="Courier,monospace" font-size="10.00" fill="#000000">0</text>
</g>
<!-- node0002 -->
<g id="node3" class="node">
<title>node0002</title>
<polygon fill="#009aa6" stroke="#000000" points="108,-217 93,-217 93,-198 108,-198 108,-217"/>
<text text-anchor="middle" x="100.5" y="-205" font-family="Courier,monospace" font-size="10.00" fill="#ffffff">2</text>
</g>
<!-- node0002&#45;&gt;node0000 -->
<g id="edge4" class="edge">
<title>node0002&#45;&gt;node0000</title>
<path fill="none" stroke="#000000" d="M97.9916,-197.7615C95.5308,-188.2077 91.7068,-173.3615 88.6047,-161.3183"/>
<polygon fill="#000000" stroke="#000000" points="86.0187,-151.2785 92.8709,-159.8399 87.2659,-156.1204 88.5131,-160.9624 88.5131,-160.9624 88.5131,-160.9624 87.2659,-156.1204 84.1554,-162.0849 86.0187,-151.2785 86.0187,-151.2785"/>
<text text-anchor="middle" x="96" y="-172" font-family="Courier,monospace" font-size="10.00" fill="#000000">1</text>
</g>
<!-- node0003&#45;&gt;node0006 -->
<g id="edge5" class="edge">
<title>node0003&#45;&gt;node0006</title>
<path fill="none" stroke="#000000" d="M37.6405,-65.9739C36.506,-57.9621 35.8846,-46.3515 39.5,-37 40.9091,-33.3552 43.0506,-29.8959 45.4992,-26.7382"/>
<polygon fill="#000000" stroke="#000000" points="52.4057,-19.1642 48.9929,-29.5855 49.0367,-22.8588 45.6677,-26.5534 45.6677,-26.5534 45.6677,-26.5534 49.0367,-22.8588 42.3426,-23.5214 52.4057,-19.1642 52.4057,-19.1642"/>
<text text-anchor="middle" x="58" y="-40" font-family="Courier,monospace" font-size="10.00" fill="#000000">height</text>
</g>
<!-- node0004 -->
<g id="node5" class="node">
<title>node0004</title>
<polygon fill="#009aa6" stroke="#000000" points="15,-151 0,-151 0,-132 15,-132 15,-151"/>
<text text-anchor="middle" x="7.5" y="-139" font-family="Courier,monospace" font-size="10.00" fill="#ffffff">3</text>
</g>
<!-- node0004&#45;&gt;node0003 -->
<g id="edge6" class="edge">
<title>node0004&#45;&gt;node0003</title>
<path fill="none" stroke="#000000" d="M12.2217,-131.7615C16.9484,-122.0127 24.3468,-106.7534 30.2469,-94.5846"/>
<polygon fill="#000000" stroke="#000000" points="34.7589,-85.2785 34.4453,-96.2399 32.5775,-89.7776 30.3961,-94.2766 30.3961,-94.2766 30.3961,-94.2766 32.5775,-89.7776 26.347,-92.3134 34.7589,-85.2785 34.7589,-85.2785"/>
<text text-anchor="middle" x="29" y="-106" font-family="Courier,monospace" font-size="10.00" fill="#000000">0</text>
</g>
<!-- node0005 -->
<g id="node6" class="node">
<title>node0005</title>
<polygon fill="#009aa6" stroke="#000000" points="48,-151 33,-151 33,-132 48,-132 48,-151"/>
<text text-anchor="middle" x="40.5" y="-139" font-family="Courier,monospace" font-size="10.00" fill="#ffffff">4</text>
</g>
<!-- node0005&#45;&gt;node0003 -->
<g id="edge7" class="edge">
<title>node0005&#45;&gt;node0003</title>
<path fill="none" stroke="#000000" d="M40.3524,-131.7615C40.2077,-122.2077 39.9828,-107.3615 39.8003,-95.3183"/>
<polygon fill="#000000" stroke="#000000" points="39.6482,-85.2785 44.2992,-95.2091 39.724,-90.2779 39.7998,-95.2773 39.7998,-95.2773 39.7998,-95.2773 39.724,-90.2779 35.3003,-95.3456 39.6482,-85.2785 39.6482,-85.2785"/>
<text text-anchor="middle" x="44" y="-106" font-family="Courier,monospace" font-size="10.00" fill="#000000">1</text>
</g>
</g>
</svg>
