<?xml version="1.0" encoding="UTF-8" standalone="no"?>
<!DOCTYPE svg PUBLIC "-//W3C//DTD SVG 1.1//EN"
 "http://www.w3.org/Graphics/SVG/1.1/DTD/svg11.dtd">
<!-- Generated by graphviz version 2.40.1 (20161225.0304)
 -->
<!-- Title: G Pages: 1 -->
<svg width="632pt" height="225pt"
 viewBox="0.00 0.00 632.00 225.00" xmlns="http://www.w3.org/2000/svg" xmlns:xlink="http://www.w3.org/1999/xlink">
<g id="graph0" class="graph" transform="scale(1 1) rotate(0) translate(4 221)">
<title>G</title>
<polygon fill="#ffffff" stroke="transparent" points="-4,4 -4,-221 628,-221 628,4 -4,4"/>
<!-- node0000 -->
<g id="node1" class="node">
<title>node0000</title>
<polygon fill="#e37222" stroke="#000000" points="362,-85 329,-85 329,-66 362,-66 362,-85"/>
<text text-anchor="middle" x="345.5" y="-73" font-family="Courier,monospace" font-size="10.00" fill="#ffffff">area</text>
</g>
<!-- node0006 -->
<g id="node7" class="node">
<title>node0006</title>
<polygon fill="#e37222" stroke="#000000" points="407,-19 98,-19 98,0 407,0 407,-19"/>
<text text-anchor="middle" x="252.5" y="-7" font-family="Courier,monospace" font-size="10.00" fill="#ffffff">uberjob.stores.json_file_store.JsonFileStore.write</text>
</g>
<!-- node0000&#45;&gt;node0006 -->
<g id="edge1" class="edge">
<title>node0000&#45;&gt;node0006</title>
<path fill="none" stroke="#000000" d="M331.7775,-65.7615C316.7183,-55.0743 292.3272,-37.7644 274.5719,-25.1639"/>
<polygon fill="#000000" stroke="#000000" points="265.9764,-19.0639 276.7359,-21.1816 270.054,-21.9577 274.1315,-24.8514 274.1315,-24.8514 274.1315,-24.8514 270.054,-21.9577 271.5271,-28.5212 265.9764,-19.0639 265.9764,-19.0639"/>
<text text-anchor="middle" x="309" y="-40" font-family="Courier,monospace" font-size="10.00" fill="#000000">1</text>
</g>
<!-- node0001 -->
<g id="node2" class="node">
<title>node0001</title>
<polygon fill="#009aa6" stroke="#000000" points="225,-217 78,-217 78,-198 225,-198 225,-217"/>
<text text-anchor="middle" x="151.5" y="-205" font-family="Courier,monospace" font-size="10.00" fill="#ffffff">JsonFileStore(&#39;x.json&#39;)</text>
</g>
<!-- node0002 -->
<g id="node3" class="node">
<title>node0002</title>
<polygon fill="#e37222" stroke="#000000" points="303,-151 0,-151 0,-132 303,-132 303,-151"/>
<text text-anchor="middle" x="151.5" y="-139" font-family="Courier,monospace" font-size="10.00" fill="#ffffff">uberjob.stores.json_file_store.JsonFileStore.read</text>
</g>
<!-- node0001&#45;&gt;node0002 -->
<g id="edge2" class="edge">
<title>node0001&#45;&gt;node0002</title>
<path fill="none" stroke="#000000" d="M151.5,-197.7615C151.5,-188.2077 151.5,-173.3615 151.5,-161.3183"/>
<polygon fill="#000000" stroke="#000000" points="151.5,-151.2785 156.0001,-161.2784 151.5,-156.2785 151.5001,-161.2785 151.5001,-161.2785 151.5001,-161.2785 151.5,-156.2785 147.0001,-161.2785 151.5,-151.2785 151.5,-151.2785"/>
<text text-anchor="middle" x="155" y="-172" font-family="Courier,monospace" font-size="10.00" fill="#000000">0</text>
</g>
<!-- node0002&#45;&gt;node0000 -->
<g id="edge3" class="edge">
<title>node0002&#45;&gt;node0000</title>
<path fill="none" stroke="#000000" d="M180.7143,-131.9294C212.4538,-121.4758 264.8735,-104.0497 319.2805,-85.015"/>
<polygon fill="#000000" stroke="#000000" points="328.7394,-81.6963 320.7931,-89.2533 324.0214,-83.3517 319.3033,-85.007 319.3033,-85.007 319.3033,-85.007 324.0214,-83.3517 317.8135,-80.7608 328.7394,-81.6963 328.7394,-81.6963"/>
<text text-anchor="middle" x="280" y="-106" font-family="Courier,monospace" font-size="10.00" fill="#000000">width</text>
</g>
<!-- node0003 -->
<g id="node4" class="node">
<title>node0003</title>
<polygon fill="#009aa6" stroke="#000000" points="546,-217 399,-217 399,-198 546,-198 546,-217"/>
<text text-anchor="middle" x="472.5" y="-205" font-family="Courier,monospace" font-size="10.00" fill="#ffffff">JsonFileStore(&#39;y.json&#39;)</text>
</g>
<!-- node0004 -->
<g id="node5" class="node">
<title>node0004</title>
<polygon fill="#e37222" stroke="#000000" points="624,-151 321,-151 321,-132 624,-132 624,-151"/>
<text text-anchor="middle" x="472.5" y="-139" font-family="Courier,monospace" font-size="10.00" fill="#ffffff">uberjob.stores.json_file_store.JsonFileStore.read</text>
</g>
<!-- node0003&#45;&gt;node0004 -->
<g id="edge4" class="edge">
<title>node0003&#45;&gt;node0004</title>
<path fill="none" stroke="#000000" d="M472.5,-197.7615C472.5,-188.2077 472.5,-173.3615 472.5,-161.3183"/>
<polygon fill="#000000" stroke="#000000" points="472.5,-151.2785 477.0001,-161.2784 472.5,-156.2785 472.5001,-161.2785 472.5001,-161.2785 472.5001,-161.2785 472.5,-156.2785 468.0001,-161.2785 472.5,-151.2785 472.5,-151.2785"/>
<text text-anchor="middle" x="476" y="-172" font-family="Courier,monospace" font-size="10.00" fill="#000000">0</text>
</g>
<!-- node0004&#45;&gt;node0000 -->
<g id="edge5" class="edge">
<title>node0004&#45;&gt;node0000</title>
<path fill="none" stroke="#000000" d="M454.0331,-131.903C432.2906,-120.6038 396.0357,-101.7627 371.4695,-88.996"/>
<polygon fill="#000000" stroke="#000000" points="362.3656,-84.2648 373.3141,-84.8832 366.8023,-86.5705 371.239,-88.8762 371.239,-88.8762 371.239,-88.8762 366.8023,-86.5705 369.1638,-92.8692 362.3656,-84.2648 362.3656,-84.2648"/>
<text text-anchor="middle" x="435" y="-106" font-family="Courier,monospace" font-size="10.00" fill="#000000">height</text>
</g>
<!-- node0005 -->
<g id="node6" class="node">
<title>node0005</title>
<polygon fill="#009aa6" stroke="#000000" points="311,-85 164,-85 164,-66 311,-66 311,-85"/>
<text text-anchor="middle" x="237.5" y="-73" font-family="Courier,monospace" font-size="10.00" fill="#ffffff">JsonFileStore(&#39;z.json&#39;)</text>
</g>
<!-- node0005&#45;&gt;node0006 -->
<g id="edge6" class="edge">
<title>node0005&#45;&gt;node0006</title>
<path fill="none" stroke="#000000" d="M239.7133,-65.7615C241.8846,-56.2077 245.2587,-41.3615 247.9958,-29.3183"/>
<polygon fill="#000000" stroke="#000000" points="250.2776,-19.2785 252.4494,-30.0271 249.1695,-24.1541 248.0613,-29.0298 248.0613,-29.0298 248.0613,-29.0298 249.1695,-24.1541 243.6732,-28.0325 250.2776,-19.2785 250.2776,-19.2785"/>
<text text-anchor="middle" x="250" y="-40" font-family="Courier,monospace" font-size="10.00" fill="#000000">0</text>
</g>
</g>
</svg>
