<?xml version="1.0" encoding="UTF-8" standalone="no"?>
<!DOCTYPE svg PUBLIC "-//W3C//DTD SVG 1.1//EN"
 "http://www.w3.org/Graphics/SVG/1.1/DTD/svg11.dtd">
<!-- Generated by graphviz version 2.40.1 (20161225.0304)
 -->
<!-- Title: G Pages: 1 -->
<svg width="309pt" height="357pt"
 viewBox="0.00 0.00 309.00 357.00" xmlns="http://www.w3.org/2000/svg" xmlns:xlink="http://www.w3.org/1999/xlink">
<g id="graph0" class="graph" transform="scale(1 1) rotate(0) translate(4 353)">
<title>G</title>
<polygon fill="#ffffff" stroke="transparent" points="-4,4 -4,-353 305,-353 305,4 -4,4"/>
<!-- node0000 -->
<g id="node1" class="node">
<title>node0000</title>
<polygon fill="#009aa6" stroke="#000000" points="93,-283 78,-283 78,-264 93,-264 93,-283"/>
<text text-anchor="middle" x="85.5" y="-271" font-family="Courier,monospace" font-size="10.00" fill="#ffffff">1</text>
</g>
<!-- node0003 -->
<g id="node4" class="node">
<title>node0003</title>
<polygon fill="#e37222" stroke="#000000" points="81,-217 0,-217 0,-198 81,-198 81,-217"/>
<text text-anchor="middle" x="40.5" y="-205" font-family="Courier,monospace" font-size="10.00" fill="#ffffff">gather_tuple</text>
</g>
<!-- node0000&#45;&gt;node0003 -->
<g id="edge1" class="edge">
<title>node0000&#45;&gt;node0003</title>
<path fill="none" stroke="#000000" d="M78.8601,-263.7615C72.0803,-253.8178 61.3915,-238.1408 53.017,-225.8582"/>
<polygon fill="#000000" stroke="#000000" points="47.1671,-217.2785 56.5186,-223.0057 49.9839,-221.4096 52.8006,-225.5408 52.8006,-225.5408 52.8006,-225.5408 49.9839,-221.4096 49.0825,-228.0758 47.1671,-217.2785 47.1671,-217.2785"/>
<text text-anchor="middle" x="70" y="-238" font-family="Courier,monospace" font-size="10.00" fill="#000000">1</text>
</g>
<!-- node0008 -->
<g id="node9" class="node">
<title>node0008</title>
<polygon fill="#e37222" stroke="#000000" points="219,-217 144,-217 144,-198 219,-198 219,-217"/>
<text text-anchor="middle" x="181.5" y="-205" font-family="Courier,monospace" font-size="10.00" fill="#ffffff">gather_list</text>
</g>
<!-- node0000&#45;&gt;node0008 -->
<g id="edge2" class="edge">
<title>node0000&#45;&gt;node0008</title>
<path fill="none" stroke="#000000" d="M93.033,-268.3211C107.1111,-258.6424 137.9083,-237.4693 159.1758,-222.8479"/>
<polygon fill="#000000" stroke="#000000" points="167.6305,-217.0353 161.9395,-226.4088 163.5103,-219.8679 159.3901,-222.7006 159.3901,-222.7006 159.3901,-222.7006 163.5103,-219.8679 156.8407,-218.9924 167.6305,-217.0353 167.6305,-217.0353"/>
<text text-anchor="middle" x="143" y="-238" font-family="Courier,monospace" font-size="10.00" fill="#000000">0</text>
</g>
<!-- node0001 -->
<g id="node2" class="node">
<title>node0001</title>
<polygon fill="#009aa6" stroke="#000000" points="199,-349 184,-349 184,-330 199,-330 199,-349"/>
<text text-anchor="middle" x="191.5" y="-337" font-family="Courier,monospace" font-size="10.00" fill="#ffffff">2</text>
</g>
<!-- node0005 -->
<g id="node6" class="node">
<title>node0005</title>
<polygon fill="#e37222" stroke="#000000" points="301,-283 220,-283 220,-264 301,-264 301,-283"/>
<text text-anchor="middle" x="260.5" y="-271" font-family="Courier,monospace" font-size="10.00" fill="#ffffff">gather_tuple</text>
</g>
<!-- node0001&#45;&gt;node0005 -->
<g id="edge3" class="edge">
<title>node0001&#45;&gt;node0005</title>
<path fill="none" stroke="#000000" d="M199.1478,-332.1847C209.6874,-322.1034 228.9767,-303.6527 243.1219,-290.1225"/>
<polygon fill="#000000" stroke="#000000" points="250.3628,-283.1964 246.2469,-293.3606 246.7496,-286.6525 243.1364,-290.1087 243.1364,-290.1087 243.1364,-290.1087 246.7496,-286.6525 240.0259,-286.8568 250.3628,-283.1964 250.3628,-283.1964"/>
<text text-anchor="middle" x="233" y="-304" font-family="Courier,monospace" font-size="10.00" fill="#000000">1</text>
</g>
<!-- node0007 -->
<g id="node8" class="node">
<title>node0007</title>
<polygon fill="#e37222" stroke="#000000" points="202,-283 121,-283 121,-264 202,-264 202,-283"/>
<text text-anchor="middle" x="161.5" y="-271" font-family="Courier,monospace" font-size="10.00" fill="#ffffff">gather_tuple</text>
</g>
<!-- node0001&#45;&gt;node0007 -->
<g id="edge4" class="edge">
<title>node0001&#45;&gt;node0007</title>
<path fill="none" stroke="#000000" d="M183.8377,-334.1551C177.4406,-329.216 168.7118,-321.2569 164.5,-312 161.897,-306.2791 160.7982,-299.585 160.4509,-293.3978"/>
<polygon fill="#000000" stroke="#000000" points="160.475,-283.1279 164.9515,-293.1385 160.4632,-288.1279 160.4515,-293.1279 160.4515,-293.1279 160.4515,-293.1279 160.4632,-288.1279 155.9515,-293.1173 160.475,-283.1279 160.475,-283.1279"/>
<text text-anchor="middle" x="168" y="-304" font-family="Courier,monospace" font-size="10.00" fill="#000000">0</text>
</g>
<!-- node0001&#45;&gt;node0007 -->
<g id="edge5" class="edge">
<title>node0001&#45;&gt;node0007</title>
<path fill="none" stroke="#000000" d="M187.0734,-329.7615C182.6422,-320.0127 175.7061,-304.7534 170.1748,-292.5846"/>
<polygon fill="#000000" stroke="#000000" points="165.9448,-283.2785 174.1795,-290.52 168.0138,-287.8303 170.0829,-292.3822 170.0829,-292.3822 170.0829,-292.3822 168.0138,-287.8303 165.9862,-294.2443 165.9448,-283.2785 165.9448,-283.2785"/>
<text text-anchor="middle" x="181" y="-304" font-family="Courier,monospace" font-size="10.00" fill="#000000">1</text>
</g>
<!-- node0002 -->
<g id="node3" class="node">
<title>node0002</title>
<polygon fill="#e37222" stroke="#000000" points="165,-19 96,-19 96,0 165,0 165,-19"/>
<text text-anchor="middle" x="130.5" y="-7" font-family="Courier,monospace" font-size="10.00" fill="#ffffff">json.dumps</text>
</g>
<!-- node0011 -->
<g id="node12" class="node">
<title>node0011</title>
<polygon fill="#e37222" stroke="#000000" points="168,-85 93,-85 93,-66 168,-66 168,-85"/>
<text text-anchor="middle" x="130.5" y="-73" font-family="Courier,monospace" font-size="10.00" fill="#ffffff">gather_dict</text>
</g>
<!-- node0003&#45;&gt;node0011 -->
<g id="edge6" class="edge">
<title>node0003&#45;&gt;node0011</title>
<path fill="none" stroke="#000000" d="M43.409,-197.8508C48.1955,-182.8948 58.6985,-153.592 73.5,-132 83.8697,-116.873 98.6446,-102.365 110.5534,-91.8385"/>
<polygon fill="#000000" stroke="#000000" points="118.2507,-85.2283 113.5959,-95.1573 114.4574,-88.4858 110.6642,-91.7433 110.6642,-91.7433 110.6642,-91.7433 114.4574,-88.4858 107.7324,-88.3294 118.2507,-85.2283 118.2507,-85.2283"/>
<text text-anchor="middle" x="77" y="-139" font-family="Courier,monospace" font-size="10.00" fill="#000000">0</text>
</g>
<!-- node0004 -->
<g id="node5" class="node">
<title>node0004</title>
<polygon fill="#009aa6" stroke="#000000" points="54,-283 27,-283 27,-264 54,-264 54,-283"/>
<text text-anchor="middle" x="40.5" y="-271" font-family="Courier,monospace" font-size="10.00" fill="#ffffff">&#39;x&#39;</text>
</g>
<!-- node0004&#45;&gt;node0003 -->
<g id="edge7" class="edge">
<title>node0004&#45;&gt;node0003</title>
<path fill="none" stroke="#000000" d="M40.5,-263.7615C40.5,-254.2077 40.5,-239.3615 40.5,-227.3183"/>
<polygon fill="#000000" stroke="#000000" points="40.5,-217.2785 45.0001,-227.2784 40.5,-222.2785 40.5001,-227.2785 40.5001,-227.2785 40.5001,-227.2785 40.5,-222.2785 36.0001,-227.2785 40.5,-217.2785 40.5,-217.2785"/>
<text text-anchor="middle" x="44" y="-238" font-family="Courier,monospace" font-size="10.00" fill="#000000">0</text>
</g>
<!-- node0005&#45;&gt;node0011 -->
<g id="edge8" class="edge">
<title>node0005&#45;&gt;node0011</title>
<path fill="none" stroke="#000000" d="M257.2224,-263.8745C252.0496,-249.1977 241.2581,-220.5515 228.5,-198 205.2094,-156.8311 168.4168,-115.1419 147.161,-92.5857"/>
<polygon fill="#000000" stroke="#000000" points="140.0866,-85.1776 150.2474,-89.3019 143.5398,-88.7937 146.9929,-92.4098 146.9929,-92.4098 146.9929,-92.4098 143.5398,-88.7937 143.7385,-95.5176 140.0866,-85.1776 140.0866,-85.1776"/>
<text text-anchor="middle" x="220" y="-172" font-family="Courier,monospace" font-size="10.00" fill="#000000">1</text>
</g>
<!-- node0006 -->
<g id="node7" class="node">
<title>node0006</title>
<polygon fill="#009aa6" stroke="#000000" points="274,-349 247,-349 247,-330 274,-330 274,-349"/>
<text text-anchor="middle" x="260.5" y="-337" font-family="Courier,monospace" font-size="10.00" fill="#ffffff">&#39;y&#39;</text>
</g>
<!-- node0006&#45;&gt;node0005 -->
<g id="edge9" class="edge">
<title>node0006&#45;&gt;node0005</title>
<path fill="none" stroke="#000000" d="M260.5,-329.7615C260.5,-320.2077 260.5,-305.3615 260.5,-293.3183"/>
<polygon fill="#000000" stroke="#000000" points="260.5,-283.2785 265.0001,-293.2784 260.5,-288.2785 260.5001,-293.2785 260.5001,-293.2785 260.5001,-293.2785 260.5,-288.2785 256.0001,-293.2785 260.5,-283.2785 260.5,-283.2785"/>
<text text-anchor="middle" x="264" y="-304" font-family="Courier,monospace" font-size="10.00" fill="#000000">0</text>
</g>
<!-- node0007&#45;&gt;node0008 -->
<g id="edge10" class="edge">
<title>node0007&#45;&gt;node0008</title>
<path fill="none" stroke="#000000" d="M164.4511,-263.7615C167.3757,-254.1102 171.937,-239.058 175.6059,-226.9506"/>
<polygon fill="#000000" stroke="#000000" points="178.5368,-217.2785 179.9433,-228.1538 177.0868,-222.0636 175.6367,-226.8487 175.6367,-226.8487 175.6367,-226.8487 177.0868,-222.0636 171.3301,-225.5437 178.5368,-217.2785 178.5368,-217.2785"/>
<text text-anchor="middle" x="176" y="-238" font-family="Courier,monospace" font-size="10.00" fill="#000000">1</text>
</g>
<!-- node0009 -->
<g id="node10" class="node">
<title>node0009</title>
<polygon fill="#e37222" stroke="#000000" points="171,-151 90,-151 90,-132 171,-132 171,-151"/>
<text text-anchor="middle" x="130.5" y="-139" font-family="Courier,monospace" font-size="10.00" fill="#ffffff">gather_tuple</text>
</g>
<!-- node0008&#45;&gt;node0009 -->
<g id="edge11" class="edge">
<title>node0008&#45;&gt;node0009</title>
<path fill="none" stroke="#000000" d="M173.9748,-197.7615C166.2157,-187.7203 153.939,-171.8329 144.4075,-159.498"/>
<polygon fill="#000000" stroke="#000000" points="138.0561,-151.2785 147.7314,-156.4398 141.1134,-155.2349 144.1706,-159.1914 144.1706,-159.1914 144.1706,-159.1914 141.1134,-155.2349 140.6098,-161.9429 138.0561,-151.2785 138.0561,-151.2785"/>
<text text-anchor="middle" x="162" y="-172" font-family="Courier,monospace" font-size="10.00" fill="#000000">1</text>
</g>
<!-- node0009&#45;&gt;node0011 -->
<g id="edge12" class="edge">
<title>node0009&#45;&gt;node0011</title>
<path fill="none" stroke="#000000" d="M130.5,-131.7615C130.5,-122.2077 130.5,-107.3615 130.5,-95.3183"/>
<polygon fill="#000000" stroke="#000000" points="130.5,-85.2785 135.0001,-95.2784 130.5,-90.2785 130.5001,-95.2785 130.5001,-95.2785 130.5001,-95.2785 130.5,-90.2785 126.0001,-95.2785 130.5,-85.2785 130.5,-85.2785"/>
<text text-anchor="middle" x="134" y="-106" font-family="Courier,monospace" font-size="10.00" fill="#000000">2</text>
</g>
<!-- node0010 -->
<g id="node11" class="node">
<title>node0010</title>
<polygon fill="#009aa6" stroke="#000000" points="126,-217 99,-217 99,-198 126,-198 126,-217"/>
<text text-anchor="middle" x="112.5" y="-205" font-family="Courier,monospace" font-size="10.00" fill="#ffffff">&#39;w&#39;</text>
</g>
<!-- node0010&#45;&gt;node0009 -->
<g id="edge13" class="edge">
<title>node0010&#45;&gt;node0009</title>
<path fill="none" stroke="#000000" d="M115.156,-197.7615C117.7881,-188.1102 121.8933,-173.058 125.1953,-160.9506"/>
<polygon fill="#000000" stroke="#000000" points="127.8331,-151.2785 129.5433,-162.1102 126.5175,-156.1023 125.2019,-160.9261 125.2019,-160.9261 125.2019,-160.9261 126.5175,-156.1023 120.8605,-159.7421 127.8331,-151.2785 127.8331,-151.2785"/>
<text text-anchor="middle" x="127" y="-172" font-family="Courier,monospace" font-size="10.00" fill="#000000">0</text>
</g>
<!-- node0011&#45;&gt;node0002 -->
<g id="edge14" class="edge">
<title>node0011&#45;&gt;node0002</title>
<path fill="none" stroke="#000000" d="M130.5,-65.7615C130.5,-56.2077 130.5,-41.3615 130.5,-29.3183"/>
<polygon fill="#000000" stroke="#000000" points="130.5,-19.2785 135.0001,-29.2784 130.5,-24.2785 130.5001,-29.2785 130.5001,-29.2785 130.5001,-29.2785 130.5,-24.2785 126.0001,-29.2785 130.5,-19.2785 130.5,-19.2785"/>
<text text-anchor="middle" x="134" y="-40" font-family="Courier,monospace" font-size="10.00" fill="#000000">0</text>
</g>
</g>
</svg>
