<?xml version="1.0" encoding="UTF-8" standalone="no"?>
<!DOCTYPE svg PUBLIC "-//W3C//DTD SVG 1.1//EN"
 "http://www.w3.org/Graphics/SVG/1.1/DTD/svg11.dtd">
<!-- Generated by graphviz version 2.40.1 (20161225.0304)
 -->
<!-- Title: G Pages: 1 -->
<svg width="788pt" height="347pt"
 viewBox="0.00 0.00 788.00 347.00" xmlns="http://www.w3.org/2000/svg" xmlns:xlink="http://www.w3.org/1999/xlink">
<g id="graph0" class="graph" transform="scale(1 1) rotate(0) translate(4 343)">
<title>G</title>
<polygon fill="#ffffff" stroke="transparent" points="-4,4 -4,-343 784,-343 784,4 -4,4"/>
<!-- node0000 -->
<g id="node1" class="node">
<title>node0000</title>
<polygon fill="#e37222" stroke="#000000" points="639,-273 612,-273 612,-254 639,-254 639,-273"/>
<text text-anchor="middle" x="625.5" y="-261" font-family="Courier,monospace" font-size="10.00" fill="#ffffff">add</text>
</g>
<!-- node0009 -->
<g id="node10" class="node">
<title>node0009</title>
<polygon fill="#e37222" stroke="#000000" points="780,-207 471,-207 471,-188 780,-188 780,-207"/>
<text text-anchor="middle" x="625.5" y="-195" font-family="Courier,monospace" font-size="10.00" fill="#ffffff">uberjob.stores.json_file_store.JsonFileStore.write</text>
</g>
<!-- node0000&#45;&gt;node0009 -->
<g id="edge1" class="edge">
<title>node0000&#45;&gt;node0009</title>
<path fill="none" stroke="#000000" d="M625.5,-253.7615C625.5,-244.2077 625.5,-229.3615 625.5,-217.3183"/>
<polygon fill="#000000" stroke="#000000" points="625.5,-207.2785 630.0001,-217.2784 625.5,-212.2785 625.5001,-217.2785 625.5001,-217.2785 625.5001,-217.2785 625.5,-212.2785 621.0001,-217.2785 625.5,-207.2785 625.5,-207.2785"/>
<text text-anchor="middle" x="629" y="-228" font-family="Courier,monospace" font-size="10.00" fill="#000000">1</text>
</g>
<!-- node0001 -->
<g id="node2" class="node">
<title>node0001</title>
<polygon fill="#009aa6" stroke="#000000" points="616,-339 601,-339 601,-320 616,-320 616,-339"/>
<text text-anchor="middle" x="608.5" y="-327" font-family="Courier,monospace" font-size="10.00" fill="#ffffff">1</text>
</g>
<!-- node0001&#45;&gt;node0000 -->
<g id="edge2" class="edge">
<title>node0001&#45;&gt;node0000</title>
<path fill="none" stroke="#000000" d="M611.0084,-319.7615C613.4692,-310.2077 617.2932,-295.3615 620.3953,-283.3183"/>
<polygon fill="#000000" stroke="#000000" points="622.9813,-273.2785 624.8446,-284.0849 621.7341,-278.1204 620.4869,-282.9624 620.4869,-282.9624 620.4869,-282.9624 621.7341,-278.1204 616.1291,-281.8399 622.9813,-273.2785 622.9813,-273.2785"/>
<text text-anchor="middle" x="621" y="-294" font-family="Courier,monospace" font-size="10.00" fill="#000000">0</text>
</g>
<!-- node0002 -->
<g id="node3" class="node">
<title>node0002</title>
<polygon fill="#009aa6" stroke="#000000" points="649,-339 634,-339 634,-320 649,-320 649,-339"/>
<text text-anchor="middle" x="641.5" y="-327" font-family="Courier,monospace" font-size="10.00" fill="#ffffff">2</text>
</g>
<!-- node0002&#45;&gt;node0000 -->
<g id="edge3" class="edge">
<title>node0002&#45;&gt;node0000</title>
<path fill="none" stroke="#000000" d="M639.1391,-319.7615C636.8231,-310.2077 633.224,-295.3615 630.3044,-283.3183"/>
<polygon fill="#000000" stroke="#000000" points="627.8705,-273.2785 634.5999,-281.9368 629.0486,-278.1377 630.2266,-282.997 630.2266,-282.997 630.2266,-282.997 629.0486,-278.1377 625.8533,-284.0572 627.8705,-273.2785 627.8705,-273.2785"/>
<text text-anchor="middle" x="637" y="-294" font-family="Courier,monospace" font-size="10.00" fill="#000000">1</text>
</g>
<!-- node0003 -->
<g id="node4" class="node">
<title>node0003</title>
<polygon fill="#e37222" stroke="#000000" points="244,-273 217,-273 217,-254 244,-254 244,-273"/>
<text text-anchor="middle" x="230.5" y="-261" font-family="Courier,monospace" font-size="10.00" fill="#ffffff">add</text>
</g>
<!-- node0012 -->
<g id="node13" class="node">
<title>node0012</title>
<polygon fill="#e37222" stroke="#000000" points="385,-207 76,-207 76,-188 385,-188 385,-207"/>
<text text-anchor="middle" x="230.5" y="-195" font-family="Courier,monospace" font-size="10.00" fill="#ffffff">uberjob.stores.json_file_store.JsonFileStore.write</text>
</g>
<!-- node0003&#45;&gt;node0012 -->
<g id="edge4" class="edge">
<title>node0003&#45;&gt;node0012</title>
<path fill="none" stroke="#000000" d="M230.5,-253.7615C230.5,-244.2077 230.5,-229.3615 230.5,-217.3183"/>
<polygon fill="#000000" stroke="#000000" points="230.5,-207.2785 235.0001,-217.2784 230.5,-212.2785 230.5001,-217.2785 230.5001,-217.2785 230.5001,-217.2785 230.5,-212.2785 226.0001,-217.2785 230.5,-207.2785 230.5,-207.2785"/>
<text text-anchor="middle" x="234" y="-228" font-family="Courier,monospace" font-size="10.00" fill="#000000">1</text>
</g>
<!-- node0004 -->
<g id="node5" class="node">
<title>node0004</title>
<polygon fill="#009aa6" stroke="#000000" points="221,-339 206,-339 206,-320 221,-320 221,-339"/>
<text text-anchor="middle" x="213.5" y="-327" font-family="Courier,monospace" font-size="10.00" fill="#ffffff">3</text>
</g>
<!-- node0004&#45;&gt;node0003 -->
<g id="edge5" class="edge">
<title>node0004&#45;&gt;node0003</title>
<path fill="none" stroke="#000000" d="M216.0084,-319.7615C218.4692,-310.2077 222.2932,-295.3615 225.3953,-283.3183"/>
<polygon fill="#000000" stroke="#000000" points="227.9813,-273.2785 229.8446,-284.0849 226.7341,-278.1204 225.4869,-282.9624 225.4869,-282.9624 225.4869,-282.9624 226.7341,-278.1204 221.1291,-281.8399 227.9813,-273.2785 227.9813,-273.2785"/>
<text text-anchor="middle" x="227" y="-294" font-family="Courier,monospace" font-size="10.00" fill="#000000">0</text>
</g>
<!-- node0005 -->
<g id="node6" class="node">
<title>node0005</title>
<polygon fill="#009aa6" stroke="#000000" points="254,-339 239,-339 239,-320 254,-320 254,-339"/>
<text text-anchor="middle" x="246.5" y="-327" font-family="Courier,monospace" font-size="10.00" fill="#ffffff">4</text>
</g>
<!-- node0005&#45;&gt;node0003 -->
<g id="edge6" class="edge">
<title>node0005&#45;&gt;node0003</title>
<path fill="none" stroke="#000000" d="M244.1391,-319.7615C241.8231,-310.2077 238.224,-295.3615 235.3044,-283.3183"/>
<polygon fill="#000000" stroke="#000000" points="232.8705,-273.2785 239.5999,-281.9368 234.0486,-278.1377 235.2266,-282.997 235.2266,-282.997 235.2266,-282.997 234.0486,-278.1377 230.8533,-284.0572 232.8705,-273.2785 232.8705,-273.2785"/>
<text text-anchor="middle" x="243" y="-294" font-family="Courier,monospace" font-size="10.00" fill="#000000">1</text>
</g>
<!-- node0006 -->
<g id="node7" class="node">
<title>node0006</title>
<polygon fill="#e37222" stroke="#000000" points="361,-85 328,-85 328,-66 361,-66 361,-85"/>
<text text-anchor="middle" x="344.5" y="-73" font-family="Courier,monospace" font-size="10.00" fill="#ffffff">area</text>
</g>
<!-- node0014 -->
<g id="node15" class="node">
<title>node0014</title>
<polygon fill="#e37222" stroke="#000000" points="406,-19 97,-19 97,0 406,0 406,-19"/>
<text text-anchor="middle" x="251.5" y="-7" font-family="Courier,monospace" font-size="10.00" fill="#ffffff">uberjob.stores.json_file_store.JsonFileStore.write</text>
</g>
<!-- node0006&#45;&gt;node0014 -->
<g id="edge7" class="edge">
<title>node0006&#45;&gt;node0014</title>
<path fill="none" stroke="#000000" d="M330.7775,-65.7615C315.7183,-55.0743 291.3272,-37.7644 273.5719,-25.1639"/>
<polygon fill="#000000" stroke="#000000" points="264.9764,-19.0639 275.7359,-21.1816 269.054,-21.9577 273.1315,-24.8514 273.1315,-24.8514 273.1315,-24.8514 269.054,-21.9577 270.5271,-28.5212 264.9764,-19.0639 264.9764,-19.0639"/>
<text text-anchor="middle" x="308" y="-40" font-family="Courier,monospace" font-size="10.00" fill="#000000">1</text>
</g>
<!-- node0007 -->
<g id="node8" class="node">
<title>node0007</title>
<polygon fill="#009aa6" stroke="#000000" points="557,-273 410,-273 410,-254 557,-254 557,-273"/>
<text text-anchor="middle" x="483.5" y="-261" font-family="Courier,monospace" font-size="10.00" fill="#ffffff">JsonFileStore(&#39;x.json&#39;)</text>
</g>
<!-- node0008 -->
<g id="node9" class="node">
<title>node0008</title>
<polygon fill="#e37222" stroke="#000000" points="624,-151 321,-151 321,-132 624,-132 624,-151"/>
<text text-anchor="middle" x="472.5" y="-139" font-family="Courier,monospace" font-size="10.00" fill="#ffffff">uberjob.stores.json_file_store.JsonFileStore.read</text>
</g>
<!-- node0007&#45;&gt;node0008 -->
<g id="edge8" class="edge">
<title>node0007&#45;&gt;node0008</title>
<path fill="none" stroke="#000000" d="M476.8367,-253.6267C469.9338,-242.752 459.594,-224.4809 455.5,-207 451.8219,-191.2949 456.9789,-173.5955 462.552,-160.5583"/>
<polygon fill="#000000" stroke="#000000" points="466.95,-151.2294 466.7561,-162.1936 464.8179,-155.752 462.6857,-160.2747 462.6857,-160.2747 462.6857,-160.2747 464.8179,-155.752 458.6153,-158.3557 466.95,-151.2294 466.95,-151.2294"/>
<text text-anchor="middle" x="459" y="-195" font-family="Courier,monospace" font-size="10.00" fill="#000000">0</text>
</g>
<!-- node0007&#45;&gt;node0009 -->
<g id="edge9" class="edge">
<title>node0007&#45;&gt;node0009</title>
<path fill="none" stroke="#000000" d="M504.148,-253.903C528.2308,-242.7096 568.2373,-224.115 595.6878,-211.3564"/>
<polygon fill="#000000" stroke="#000000" points="604.8271,-207.1085 597.6554,-215.4042 600.2929,-209.216 595.7587,-211.3235 595.7587,-211.3235 595.7587,-211.3235 600.2929,-209.216 593.862,-207.2427 604.8271,-207.1085 604.8271,-207.1085"/>
<text text-anchor="middle" x="566" y="-228" font-family="Courier,monospace" font-size="10.00" fill="#000000">0</text>
</g>
<!-- node0008&#45;&gt;node0006 -->
<g id="edge10" class="edge">
<title>node0008&#45;&gt;node0006</title>
<path fill="none" stroke="#000000" d="M453.8877,-131.903C431.8516,-120.5407 395.0249,-101.5519 370.2601,-88.7826"/>
<polygon fill="#000000" stroke="#000000" points="361.0984,-84.0586 372.0488,-84.6419 365.5425,-86.35 369.9865,-88.6415 369.9865,-88.6415 369.9865,-88.6415 365.5425,-86.35 367.9242,-92.6411 361.0984,-84.0586 361.0984,-84.0586"/>
<text text-anchor="middle" x="432" y="-106" font-family="Courier,monospace" font-size="10.00" fill="#000000">width</text>
</g>
<!-- node0009&#45;&gt;node0008 -->
<g id="edge11" class="edge">
<title>node0009&#45;&gt;node0008</title>
<path fill="none" stroke="#000000" stroke-dasharray="5,2" d="M599.1984,-187.8733C574.0872,-178.6822 536.0562,-164.7624 508.2128,-154.5713"/>
<polygon fill="#000000" stroke="#000000" points="498.4584,-151.0011 509.3959,-150.2125 503.1538,-152.7197 507.8492,-154.4383 507.8492,-154.4383 507.8492,-154.4383 503.1538,-152.7197 506.3024,-158.6642 498.4584,-151.0011 498.4584,-151.0011"/>
</g>
<!-- node0010 -->
<g id="node11" class="node">
<title>node0010</title>
<polygon fill="#009aa6" stroke="#000000" points="162,-273 15,-273 15,-254 162,-254 162,-273"/>
<text text-anchor="middle" x="88.5" y="-261" font-family="Courier,monospace" font-size="10.00" fill="#ffffff">JsonFileStore(&#39;y.json&#39;)</text>
</g>
<!-- node0011 -->
<g id="node12" class="node">
<title>node0011</title>
<polygon fill="#e37222" stroke="#000000" points="303,-151 0,-151 0,-132 303,-132 303,-151"/>
<text text-anchor="middle" x="151.5" y="-139" font-family="Courier,monospace" font-size="10.00" fill="#ffffff">uberjob.stores.json_file_store.JsonFileStore.read</text>
</g>
<!-- node0010&#45;&gt;node0011 -->
<g id="edge12" class="edge">
<title>node0010&#45;&gt;node0011</title>
<path fill="none" stroke="#000000" d="M79.2754,-253.678C66.4176,-238.7445 46.112,-209.7676 59.5,-188 69.0617,-172.4535 85.6059,-161.914 102.0517,-154.8594"/>
<polygon fill="#000000" stroke="#000000" points="111.6699,-151.097 103.9964,-158.9308 107.0134,-152.9185 102.357,-154.74 102.357,-154.74 102.357,-154.74 107.0134,-152.9185 100.7177,-150.5493 111.6699,-151.097 111.6699,-151.097"/>
<text text-anchor="middle" x="63" y="-195" font-family="Courier,monospace" font-size="10.00" fill="#000000">0</text>
</g>
<!-- node0010&#45;&gt;node0012 -->
<g id="edge13" class="edge">
<title>node0010&#45;&gt;node0012</title>
<path fill="none" stroke="#000000" d="M109.148,-253.903C133.2308,-242.7096 173.2373,-224.115 200.6878,-211.3564"/>
<polygon fill="#000000" stroke="#000000" points="209.8271,-207.1085 202.6554,-215.4042 205.2929,-209.216 200.7587,-211.3235 200.7587,-211.3235 200.7587,-211.3235 205.2929,-209.216 198.862,-207.2427 209.8271,-207.1085 209.8271,-207.1085"/>
<text text-anchor="middle" x="172" y="-228" font-family="Courier,monospace" font-size="10.00" fill="#000000">0</text>
</g>
<!-- node0011&#45;&gt;node0006 -->
<g id="edge14" class="edge">
<title>node0011&#45;&gt;node0006</title>
<path fill="none" stroke="#000000" d="M180.5353,-131.9122C212.0162,-121.4654 263.9698,-104.076 317.9893,-85.1217"/>
<polygon fill="#000000" stroke="#000000" points="327.7378,-81.6918 319.7982,-89.2557 323.0212,-83.3513 318.3046,-85.0108 318.3046,-85.0108 318.3046,-85.0108 323.0212,-83.3513 316.8111,-80.7659 327.7378,-81.6918 327.7378,-81.6918"/>
<text text-anchor="middle" x="283" y="-106" font-family="Courier,monospace" font-size="10.00" fill="#000000">height</text>
</g>
<!-- node0012&#45;&gt;node0011 -->
<g id="edge15" class="edge">
<title>node0012&#45;&gt;node0011</title>
<path fill="none" stroke="#000000" stroke-dasharray="5,2" d="M216.7393,-187.7455C204.8448,-179.314 187.435,-166.9729 173.5915,-157.1598"/>
<polygon fill="#000000" stroke="#000000" points="165.1031,-151.1427 175.8637,-153.2545 169.1822,-154.0342 173.2613,-156.9258 173.2613,-156.9258 173.2613,-156.9258 169.1822,-154.0342 170.6589,-160.597 165.1031,-151.1427 165.1031,-151.1427"/>
</g>
<!-- node0013 -->
<g id="node14" class="node">
<title>node0013</title>
<polygon fill="#009aa6" stroke="#000000" points="310,-85 163,-85 163,-66 310,-66 310,-85"/>
<text text-anchor="middle" x="236.5" y="-73" font-family="Courier,monospace" font-size="10.00" fill="#ffffff">JsonFileStore(&#39;z.json&#39;)</text>
</g>
<!-- node0013&#45;&gt;node0014 -->
<g id="edge16" class="edge">
<title>node0013&#45;&gt;node0014</title>
<path fill="none" stroke="#000000" d="M238.7133,-65.7615C240.8846,-56.2077 244.2587,-41.3615 246.9958,-29.3183"/>
<polygon fill="#000000" stroke="#000000" points="249.2776,-19.2785 251.4494,-30.0271 248.1695,-24.1541 247.0613,-29.0298 247.0613,-29.0298 247.0613,-29.0298 248.1695,-24.1541 242.6732,-28.0325 249.2776,-19.2785 249.2776,-19.2785"/>
<text text-anchor="middle" x="249" y="-40" font-family="Courier,monospace" font-size="10.00" fill="#000000">0</text>
</g>
</g>
</svg>
