<?xml version="1.0" encoding="UTF-8" standalone="no"?>
<!DOCTYPE svg PUBLIC "-//W3C//DTD SVG 1.1//EN"
 "http://www.w3.org/Graphics/SVG/1.1/DTD/svg11.dtd">
<!-- Generated by graphviz version 2.40.1 (20161225.0304)
 -->
<!-- Title: G Pages: 1 -->
<svg width="763pt" height="357pt"
 viewBox="0.00 0.00 763.00 357.00" xmlns="http://www.w3.org/2000/svg" xmlns:xlink="http://www.w3.org/1999/xlink">
<g id="graph0" class="graph" transform="scale(1 1) rotate(0) translate(4 353)">
<title>G</title>
<polygon fill="#ffffff" stroke="transparent" points="-4,4 -4,-353 759,-353 759,4 -4,4"/>
<!-- node0000 -->
<g id="node1" class="node">
<title>node0000</title>
<polygon fill="#e37222" stroke="#000000" points="614,-283 587,-283 587,-264 614,-264 614,-283"/>
<text text-anchor="middle" x="600.5" y="-271" font-family="Courier,monospace" font-size="10.00" fill="#ffffff">add</text>
</g>
<!-- node0008 -->
<g id="node9" class="node">
<title>node0008</title>
<polygon fill="#e37222" stroke="#000000" points="755,-217 446,-217 446,-198 755,-198 755,-217"/>
<text text-anchor="middle" x="600.5" y="-205" font-family="Courier,monospace" font-size="10.00" fill="#ffffff">uberjob.stores.json_file_store.JsonFileStore.write</text>
</g>
<!-- node0000&#45;&gt;node0008 -->
<g id="edge1" class="edge">
<title>node0000&#45;&gt;node0008</title>
<path fill="none" stroke="#000000" d="M600.5,-263.7615C600.5,-254.2077 600.5,-239.3615 600.5,-227.3183"/>
<polygon fill="#000000" stroke="#000000" points="600.5,-217.2785 605.0001,-227.2784 600.5,-222.2785 600.5001,-227.2785 600.5001,-227.2785 600.5001,-227.2785 600.5,-222.2785 596.0001,-227.2785 600.5,-217.2785 600.5,-217.2785"/>
<text text-anchor="middle" x="604" y="-238" font-family="Courier,monospace" font-size="10.00" fill="#000000">1</text>
</g>
<!-- node0001 -->
<g id="node2" class="node">
<title>node0001</title>
<polygon fill="#009aa6" stroke="#000000" points="592,-349 577,-349 577,-330 592,-330 592,-349"/>
<text text-anchor="middle" x="584.5" y="-337" font-family="Courier,monospace" font-size="10.00" fill="#ffffff">3</text>
</g>
<!-- node0001&#45;&gt;node0000 -->
<g id="edge2" class="edge">
<title>node0001&#45;&gt;node0000</title>
<path fill="none" stroke="#000000" d="M584.6828,-329.8602C585.0261,-321.9828 585.9673,-310.6177 588.5,-301 589.2333,-298.2153 590.2095,-295.3509 591.2895,-292.5711"/>
<polygon fill="#000000" stroke="#000000" points="595.4086,-283.1647 595.5193,-294.13 593.4029,-287.7448 591.3972,-292.3249 591.3972,-292.3249 591.3972,-292.3249 593.4029,-287.7448 587.2751,-290.5197 595.4086,-283.1647 595.4086,-283.1647"/>
<text text-anchor="middle" x="592" y="-304" font-family="Courier,monospace" font-size="10.00" fill="#000000">0</text>
</g>
<!-- node0002 -->
<g id="node3" class="node">
<title>node0002</title>
<polygon fill="#009aa6" stroke="#000000" points="625,-349 610,-349 610,-330 625,-330 625,-349"/>
<text text-anchor="middle" x="617.5" y="-337" font-family="Courier,monospace" font-size="10.00" fill="#ffffff">4</text>
</g>
<!-- node0002&#45;&gt;node0000 -->
<g id="edge3" class="edge">
<title>node0002&#45;&gt;node0000</title>
<path fill="none" stroke="#000000" d="M614.9916,-329.7615C612.5308,-320.2077 608.7068,-305.3615 605.6047,-293.3183"/>
<polygon fill="#000000" stroke="#000000" points="603.0187,-283.2785 609.8709,-291.8399 604.2659,-288.1204 605.5131,-292.9624 605.5131,-292.9624 605.5131,-292.9624 604.2659,-288.1204 601.1554,-294.0849 603.0187,-283.2785 603.0187,-283.2785"/>
<text text-anchor="middle" x="613" y="-304" font-family="Courier,monospace" font-size="10.00" fill="#000000">1</text>
</g>
<!-- node0003 -->
<g id="node4" class="node">
<title>node0003</title>
<polygon fill="#e37222" stroke="#000000" points="362,-85 329,-85 329,-66 362,-66 362,-85"/>
<text text-anchor="middle" x="345.5" y="-73" font-family="Courier,monospace" font-size="10.00" fill="#ffffff">area</text>
</g>
<!-- node0010 -->
<g id="node11" class="node">
<title>node0010</title>
<polygon fill="#e37222" stroke="#000000" points="407,-19 98,-19 98,0 407,0 407,-19"/>
<text text-anchor="middle" x="252.5" y="-7" font-family="Courier,monospace" font-size="10.00" fill="#ffffff">uberjob.stores.json_file_store.JsonFileStore.write</text>
</g>
<!-- node0003&#45;&gt;node0010 -->
<g id="edge4" class="edge">
<title>node0003&#45;&gt;node0010</title>
<path fill="none" stroke="#000000" d="M331.7775,-65.7615C316.7183,-55.0743 292.3272,-37.7644 274.5719,-25.1639"/>
<polygon fill="#000000" stroke="#000000" points="265.9764,-19.0639 276.7359,-21.1816 270.054,-21.9577 274.1315,-24.8514 274.1315,-24.8514 274.1315,-24.8514 270.054,-21.9577 271.5271,-28.5212 265.9764,-19.0639 265.9764,-19.0639"/>
<text text-anchor="middle" x="309" y="-40" font-family="Courier,monospace" font-size="10.00" fill="#000000">1</text>
</g>
<!-- node0004 -->
<g id="node5" class="node">
<title>node0004</title>
<polygon fill="#009aa6" stroke="#000000" points="225,-217 78,-217 78,-198 225,-198 225,-217"/>
<text text-anchor="middle" x="151.5" y="-205" font-family="Courier,monospace" font-size="10.00" fill="#ffffff">JsonFileStore(&#39;x.json&#39;)</text>
</g>
<!-- node0005 -->
<g id="node6" class="node">
<title>node0005</title>
<polygon fill="#e37222" stroke="#000000" points="303,-151 0,-151 0,-132 303,-132 303,-151"/>
<text text-anchor="middle" x="151.5" y="-139" font-family="Courier,monospace" font-size="10.00" fill="#ffffff">uberjob.stores.json_file_store.JsonFileStore.read</text>
</g>
<!-- node0004&#45;&gt;node0005 -->
<g id="edge5" class="edge">
<title>node0004&#45;&gt;node0005</title>
<path fill="none" stroke="#000000" d="M151.5,-197.7615C151.5,-188.2077 151.5,-173.3615 151.5,-161.3183"/>
<polygon fill="#000000" stroke="#000000" points="151.5,-151.2785 156.0001,-161.2784 151.5,-156.2785 151.5001,-161.2785 151.5001,-161.2785 151.5001,-161.2785 151.5,-156.2785 147.0001,-161.2785 151.5,-151.2785 151.5,-151.2785"/>
<text text-anchor="middle" x="155" y="-172" font-family="Courier,monospace" font-size="10.00" fill="#000000">0</text>
</g>
<!-- node0005&#45;&gt;node0003 -->
<g id="edge6" class="edge">
<title>node0005&#45;&gt;node0003</title>
<path fill="none" stroke="#000000" d="M180.7143,-131.9294C212.4538,-121.4758 264.8735,-104.0497 319.2805,-85.015"/>
<polygon fill="#000000" stroke="#000000" points="328.7394,-81.6963 320.7931,-89.2533 324.0214,-83.3517 319.3033,-85.007 319.3033,-85.007 319.3033,-85.007 324.0214,-83.3517 317.8135,-80.7608 328.7394,-81.6963 328.7394,-81.6963"/>
<text text-anchor="middle" x="280" y="-106" font-family="Courier,monospace" font-size="10.00" fill="#000000">width</text>
</g>
<!-- node0006 -->
<g id="node7" class="node">
<title>node0006</title>
<polygon fill="#009aa6" stroke="#000000" points="532,-283 385,-283 385,-264 532,-264 532,-283"/>
<text text-anchor="middle" x="458.5" y="-271" font-family="Courier,monospace" font-size="10.00" fill="#ffffff">JsonFileStore(&#39;y.json&#39;)</text>
</g>
<!-- node0007 -->
<g id="node8" class="node">
<title>node0007</title>
<polygon fill="#e37222" stroke="#000000" points="624,-151 321,-151 321,-132 624,-132 624,-151"/>
<text text-anchor="middle" x="472.5" y="-139" font-family="Courier,monospace" font-size="10.00" fill="#ffffff">uberjob.stores.json_file_store.JsonFileStore.read</text>
</g>
<!-- node0006&#45;&gt;node0007 -->
<g id="edge7" class="edge">
<title>node0006&#45;&gt;node0007</title>
<path fill="none" stroke="#000000" d="M450.4714,-263.8049C439.6482,-249.5105 422.5933,-221.8896 430.5,-198 435.409,-183.1677 445.8874,-169.0607 455.1494,-158.6528"/>
<polygon fill="#000000" stroke="#000000" points="462.1868,-151.1557 458.6237,-161.5266 458.7648,-154.8012 455.3427,-158.4468 455.3427,-158.4468 455.3427,-158.4468 458.7648,-154.8012 452.0618,-155.3669 462.1868,-151.1557 462.1868,-151.1557"/>
<text text-anchor="middle" x="434" y="-205" font-family="Courier,monospace" font-size="10.00" fill="#000000">0</text>
</g>
<!-- node0006&#45;&gt;node0008 -->
<g id="edge8" class="edge">
<title>node0006&#45;&gt;node0008</title>
<path fill="none" stroke="#000000" d="M479.148,-263.903C503.2308,-252.7096 543.2373,-234.115 570.6878,-221.3564"/>
<polygon fill="#000000" stroke="#000000" points="579.8271,-217.1085 572.6554,-225.4042 575.2929,-219.216 570.7587,-221.3235 570.7587,-221.3235 570.7587,-221.3235 575.2929,-219.216 568.862,-217.2427 579.8271,-217.1085 579.8271,-217.1085"/>
<text text-anchor="middle" x="542" y="-238" font-family="Courier,monospace" font-size="10.00" fill="#000000">0</text>
</g>
<!-- node0007&#45;&gt;node0003 -->
<g id="edge9" class="edge">
<title>node0007&#45;&gt;node0003</title>
<path fill="none" stroke="#000000" d="M454.0331,-131.903C432.2906,-120.6038 396.0357,-101.7627 371.4695,-88.996"/>
<polygon fill="#000000" stroke="#000000" points="362.3656,-84.2648 373.3141,-84.8832 366.8023,-86.5705 371.239,-88.8762 371.239,-88.8762 371.239,-88.8762 366.8023,-86.5705 369.1638,-92.8692 362.3656,-84.2648 362.3656,-84.2648"/>
<text text-anchor="middle" x="436" y="-106" font-family="Courier,monospace" font-size="10.00" fill="#000000">height</text>
</g>
<!-- node0008&#45;&gt;node0007 -->
<g id="edge10" class="edge">
<title>node0008&#45;&gt;node0007</title>
<path fill="none" stroke="#000000" stroke-dasharray="5,2" d="M581.8877,-197.903C560.3689,-186.8074 524.7459,-168.4393 500.0238,-155.692"/>
<polygon fill="#000000" stroke="#000000" points="491.1348,-151.1085 502.0851,-151.6919 495.5788,-153.4 500.0228,-155.6915 500.0228,-155.6915 500.0228,-155.6915 495.5788,-153.4 497.9605,-159.6911 491.1348,-151.1085 491.1348,-151.1085"/>
</g>
<!-- node0009 -->
<g id="node10" class="node">
<title>node0009</title>
<polygon fill="#009aa6" stroke="#000000" points="311,-85 164,-85 164,-66 311,-66 311,-85"/>
<text text-anchor="middle" x="237.5" y="-73" font-family="Courier,monospace" font-size="10.00" fill="#ffffff">JsonFileStore(&#39;z.json&#39;)</text>
</g>
<!-- node0009&#45;&gt;node0010 -->
<g id="edge11" class="edge">
<title>node0009&#45;&gt;node0010</title>
<path fill="none" stroke="#000000" d="M239.7133,-65.7615C241.8846,-56.2077 245.2587,-41.3615 247.9958,-29.3183"/>
<polygon fill="#000000" stroke="#000000" points="250.2776,-19.2785 252.4494,-30.0271 249.1695,-24.1541 248.0613,-29.0298 248.0613,-29.0298 248.0613,-29.0298 249.1695,-24.1541 243.6732,-28.0325 250.2776,-19.2785 250.2776,-19.2785"/>
<text text-anchor="middle" x="250" y="-40" font-family="Courier,monospace" font-size="10.00" fill="#000000">0</text>
</g>
</g>
</svg>
