<?xml version="1.0" encoding="UTF-8" standalone="no"?>
<!DOCTYPE svg PUBLIC "-//W3C//DTD SVG 1.1//EN"
 "http://www.w3.org/Graphics/SVG/1.1/DTD/svg11.dtd">
<!-- Generated by graphviz version 2.40.1 (20161225.0304)
 -->
<!-- Title: G Pages: 1 -->
<svg width="278pt" height="303pt"
 viewBox="0.00 0.00 278.00 303.00" xmlns="http://www.w3.org/2000/svg" xmlns:xlink="http://www.w3.org/1999/xlink">
<g id="graph0" class="graph" transform="scale(1 1) rotate(0) translate(4 299)">
<title>G</title>
<polygon fill="#ffffff" stroke="transparent" points="-4,4 -4,-299 274,-299 274,4 -4,4"/>
<!-- node0000 -->
<g id="node1" class="node">
<title>node0000</title>
<polygon fill="#bb2fed" stroke="#000000" points="129,-295 0,-295 0,-265 129,-265 129,-295"/>
<text text-anchor="middle" x="64.5" y="-283" font-family="Courier,monospace" font-size="10.00" fill="#ffffff">source</text>
<text text-anchor="middle" x="64.5" y="-272" font-family="Courier,monospace" font-size="10.00" fill="#ffffff">PathSource(&#39;a.json&#39;)</text>
</g>
<!-- node0002 -->
<g id="node3" class="node">
<title>node0002</title>
<polygon fill="#e37222" stroke="#000000" points="201,-218 126,-218 126,-199 201,-199 201,-218"/>
<text text-anchor="middle" x="163.5" y="-206" font-family="Courier,monospace" font-size="10.00" fill="#ffffff">gather_list</text>
</g>
<!-- node0000&#45;&gt;node0002 -->
<g id="edge1" class="edge">
<title>node0000&#45;&gt;node0002</title>
<path fill="none" stroke="#000000" d="M85.4954,-264.8367C102.1222,-252.8284 125.2578,-236.1194 142.0116,-224.0194"/>
<polygon fill="#000000" stroke="#000000" points="150.1227,-218.1614 144.6506,-227.6644 146.0693,-221.0889 142.0159,-224.0163 142.0159,-224.0163 142.0159,-224.0163 146.0693,-221.0889 139.3812,-220.3683 150.1227,-218.1614 150.1227,-218.1614"/>
<text text-anchor="middle" x="127" y="-239" font-family="Courier,monospace" font-size="10.00" fill="#000000">1</text>
</g>
<!-- node0001 -->
<g id="node2" class="node">
<title>node0001</title>
<polygon fill="#e37222" stroke="#000000" points="231,-152 96,-152 96,-133 231,-133 231,-152"/>
<text text-anchor="middle" x="163.5" y="-140" font-family="Courier,monospace" font-size="10.00" fill="#ffffff">subprocess.check_call</text>
</g>
<!-- node0005 -->
<g id="node6" class="node">
<title>node0005</title>
<polygon fill="#bb2fed" stroke="#000000" points="237,-96 90,-96 90,-66 237,-66 237,-96"/>
<text text-anchor="middle" x="163.5" y="-84" font-family="Courier,monospace" font-size="10.00" fill="#ffffff">source</text>
<text text-anchor="middle" x="163.5" y="-73" font-family="Courier,monospace" font-size="10.00" fill="#ffffff">JsonFileStore(&#39;b.json&#39;)</text>
</g>
<!-- node0001&#45;&gt;node0005 -->
<g id="edge2" class="edge">
<title>node0001&#45;&gt;node0005</title>
<path fill="none" stroke="#000000" stroke-dasharray="5,2" d="M163.5,-132.8906C163.5,-125.7234 163.5,-115.5862 163.5,-106.171"/>
<polygon fill="#000000" stroke="#000000" points="163.5,-96.0446 168.0001,-106.0445 163.5,-101.0446 163.5001,-106.0446 163.5001,-106.0446 163.5001,-106.0446 163.5,-101.0446 159.0001,-106.0446 163.5,-96.0446 163.5,-96.0446"/>
</g>
<!-- node0002&#45;&gt;node0001 -->
<g id="edge3" class="edge">
<title>node0002&#45;&gt;node0001</title>
<path fill="none" stroke="#000000" d="M163.5,-198.7615C163.5,-189.2077 163.5,-174.3615 163.5,-162.3183"/>
<polygon fill="#000000" stroke="#000000" points="163.5,-152.2785 168.0001,-162.2784 163.5,-157.2785 163.5001,-162.2785 163.5001,-162.2785 163.5001,-162.2785 163.5,-157.2785 159.0001,-162.2785 163.5,-152.2785 163.5,-152.2785"/>
<text text-anchor="middle" x="167" y="-173" font-family="Courier,monospace" font-size="10.00" fill="#000000">0</text>
</g>
<!-- node0003 -->
<g id="node4" class="node">
<title>node0003</title>
<polygon fill="#009aa6" stroke="#000000" points="180,-289.5 147,-289.5 147,-270.5 180,-270.5 180,-289.5"/>
<text text-anchor="middle" x="163.5" y="-277.5" font-family="Courier,monospace" font-size="10.00" fill="#ffffff">&#39;cp&#39;</text>
</g>
<!-- node0003&#45;&gt;node0002 -->
<g id="edge4" class="edge">
<title>node0003&#45;&gt;node0002</title>
<path fill="none" stroke="#000000" d="M163.5,-270.3572C163.5,-259.7556 163.5,-242.419 163.5,-228.7928"/>
<polygon fill="#000000" stroke="#000000" points="163.5,-218.4488 168.0001,-228.4488 163.5,-223.4488 163.5001,-228.4488 163.5001,-228.4488 163.5001,-228.4488 163.5,-223.4488 159.0001,-228.4489 163.5,-218.4488 163.5,-218.4488"/>
<text text-anchor="middle" x="167" y="-239" font-family="Courier,monospace" font-size="10.00" fill="#000000">0</text>
</g>
<!-- node0004 -->
<g id="node5" class="node">
<title>node0004</title>
<polygon fill="#009aa6" stroke="#000000" points="255,-289.5 198,-289.5 198,-270.5 255,-270.5 255,-289.5"/>
<text text-anchor="middle" x="226.5" y="-277.5" font-family="Courier,monospace" font-size="10.00" fill="#ffffff">&#39;b.json&#39;</text>
</g>
<!-- node0004&#45;&gt;node0002 -->
<g id="edge5" class="edge">
<title>node0004&#45;&gt;node0002</title>
<path fill="none" stroke="#000000" d="M218.0035,-270.3572C208.0084,-259.0135 191.219,-239.9589 178.9103,-225.9895"/>
<polygon fill="#000000" stroke="#000000" points="172.2661,-218.4488 182.2535,-222.9768 175.5716,-222.2003 178.8771,-225.9518 178.8771,-225.9518 178.8771,-225.9518 175.5716,-222.2003 175.5008,-228.9268 172.2661,-218.4488 172.2661,-218.4488"/>
<text text-anchor="middle" x="200" y="-239" font-family="Courier,monospace" font-size="10.00" fill="#000000">2</text>
</g>
<!-- node0006 -->
<g id="node7" class="node">
<title>node0006</title>
<polygon fill="#e37222" stroke="#000000" points="227,-19 200,-19 200,0 227,0 227,-19"/>
<text text-anchor="middle" x="213.5" y="-7" font-family="Courier,monospace" font-size="10.00" fill="#ffffff">pow</text>
</g>
<!-- node0005&#45;&gt;node0006 -->
<g id="edge6" class="edge">
<title>node0005&#45;&gt;node0006</title>
<path fill="none" stroke="#000000" d="M174.1037,-65.8367C181.9618,-54.5996 192.6985,-39.2461 200.9789,-27.4052"/>
<polygon fill="#000000" stroke="#000000" points="206.7438,-19.1614 204.7007,-29.9353 203.8784,-23.2589 201.013,-27.3564 201.013,-27.3564 201.013,-27.3564 203.8784,-23.2589 197.3252,-24.7776 206.7438,-19.1614 206.7438,-19.1614"/>
<text text-anchor="middle" x="196" y="-40" font-family="Courier,monospace" font-size="10.00" fill="#000000">0</text>
</g>
<!-- node0007 -->
<g id="node8" class="node">
<title>node0007</title>
<polygon fill="#009aa6" stroke="#000000" points="270,-90.5 255,-90.5 255,-71.5 270,-71.5 270,-90.5"/>
<text text-anchor="middle" x="262.5" y="-78.5" font-family="Courier,monospace" font-size="10.00" fill="#ffffff">2</text>
</g>
<!-- node0007&#45;&gt;node0006 -->
<g id="edge7" class="edge">
<title>node0007&#45;&gt;node0006</title>
<path fill="none" stroke="#000000" d="M255.8916,-71.3572C248.263,-60.2255 235.5456,-41.6685 226.0262,-27.778"/>
<polygon fill="#000000" stroke="#000000" points="220.3181,-19.4488 229.6831,-25.1538 223.1446,-23.5732 225.9712,-27.6977 225.9712,-27.6977 225.9712,-27.6977 223.1446,-23.5732 222.2592,-30.2415 220.3181,-19.4488 220.3181,-19.4488"/>
<text text-anchor="middle" x="242" y="-40" font-family="Courier,monospace" font-size="10.00" fill="#000000">1</text>
</g>
</g>
</svg>
