<?xml version="1.0" encoding="UTF-8" standalone="no"?>
<!DOCTYPE svg PUBLIC "-//W3C//DTD SVG 1.1//EN"
 "http://www.w3.org/Graphics/SVG/1.1/DTD/svg11.dtd">
<!-- Generated by graphviz version 2.40.1 (20161225.0304)
 -->
<!-- Title: G Pages: 1 -->
<svg width="86pt" height="93pt"
 viewBox="0.00 0.00 86.27 93.00" xmlns="http://www.w3.org/2000/svg" xmlns:xlink="http://www.w3.org/1999/xlink">
<g id="graph0" class="graph" transform="scale(1 1) rotate(0) translate(4 89)">
<title>G</title>
<polygon fill="#ffffff" stroke="transparent" points="-4,4 -4,-89 82.2655,-89 82.2655,4 -4,4"/>
<!-- node0000 -->
<g id="node1" class="node">
<title>node0000</title>
<polygon fill="#009aa6" stroke="#000000" points="51.2655,-85 36.2655,-85 36.2655,-66 51.2655,-66 51.2655,-85"/>
<text text-anchor="middle" x="43.7655" y="-73" font-family="Courier,monospace" font-size="10.00" fill="#ffffff">7</text>
</g>
<!-- node0001 -->
<g id="node2" class="node">
<title>node0001</title>
<polygon fill="#e37222" stroke="#000000" points="78.2655,-19 9.2655,-19 9.2655,0 78.2655,0 78.2655,-19"/>
<text text-anchor="middle" x="43.7655" y="-7" font-family="Courier,monospace" font-size="10.00" fill="#ffffff">str.format</text>
</g>
<!-- node0000&#45;&gt;node0001 -->
<g id="edge1" class="edge">
<title>node0000&#45;&gt;node0001</title>
<path fill="none" stroke="#000000" d="M36.1612,-73.0753C26.1759,-69.432 9.0596,-61.4944 1.7655,-48 -3.1321,-38.9393 2.9027,-30.8799 11.7869,-24.5064"/>
<polygon fill="#000000" stroke="#000000" points="20.515,-19.1466 14.3483,-28.2143 16.2543,-21.7631 11.9935,-24.3796 11.9935,-24.3796 11.9935,-24.3796 16.2543,-21.7631 9.6387,-20.5449 20.515,-19.1466 20.515,-19.1466"/>
<text text-anchor="middle" x="5.2655" y="-40" font-family="Courier,monospace" font-size="10.00" fill="#000000">0</text>
</g>
<!-- node0000&#45;&gt;node0001 -->
<g id="edge2" class="edge">
<title>node0000&#45;&gt;node0001</title>
<path fill="none" stroke="#000000" d="M37.8662,-65.8261C33.8741,-58.1214 29.6774,-47.0062 31.7655,-37 32.3538,-34.1811 33.2475,-31.2973 34.2874,-28.508"/>
<polygon fill="#000000" stroke="#000000" points="38.411,-19.1026 38.5169,-30.068 36.4033,-23.6819 34.3956,-28.2611 34.3956,-28.2611 34.3956,-28.2611 36.4033,-23.6819 30.2743,-26.4542 38.411,-19.1026 38.411,-19.1026"/>
<text text-anchor="middle" x="35.2655" y="-40" font-family="Courier,monospace" font-size="10.00" fill="#000000">1</text>
</g>
<!-- node0000&#45;&gt;node0001 -->
<g id="edge3" class="edge">
<title>node0000&#45;&gt;node0001</title>
<path fill="none" stroke="#000000" d="M43.7655,-65.7615C43.7655,-56.2077 43.7655,-41.3615 43.7655,-29.3183"/>
<polygon fill="#000000" stroke="#000000" points="43.7655,-19.2785 48.2656,-29.2784 43.7656,-24.2785 43.7656,-29.2785 43.7656,-29.2785 43.7656,-29.2785 43.7656,-24.2785 39.2656,-29.2785 43.7655,-19.2785 43.7655,-19.2785"/>
<text text-anchor="middle" x="47.2655" y="-40" font-family="Courier,monospace" font-size="10.00" fill="#000000">a</text>
</g>
<!-- node0000&#45;&gt;node0001 -->
<g id="edge4" class="edge">
<title>node0000&#45;&gt;node0001</title>
<path fill="none" stroke="#000000" d="M48.6768,-65.8473C51.0253,-60.6945 53.5792,-54.1601 54.7655,-48 55.9951,-41.6155 54.8578,-34.757 52.9191,-28.6232"/>
<polygon fill="#000000" stroke="#000000" points="49.1761,-19.1961 57.0488,-26.8296 51.0212,-23.8432 52.8664,-28.4903 52.8664,-28.4903 52.8664,-28.4903 51.0212,-23.8432 48.684,-30.1509 49.1761,-19.1961 49.1761,-19.1961"/>
<text text-anchor="middle" x="58.2655" y="-40" font-family="Courier,monospace" font-size="10.00" fill="#000000">b</text>
</g>
</g>
</svg>
