<?xml version="1.0" encoding="UTF-8" standalone="no"?>
<!DOCTYPE svg PUBLIC "-//W3C//DTD SVG 1.1//EN"
 "http://www.w3.org/Graphics/SVG/1.1/DTD/svg11.dtd">
<!-- Generated by graphviz version 2.40.1 (20161225.0304)
 -->
<!-- Title: G Pages: 1 -->
<svg width="320pt" height="181pt"
 viewBox="0.00 0.00 320.00 181.00" xmlns="http://www.w3.org/2000/svg" xmlns:xlink="http://www.w3.org/1999/xlink">
<g id="graph0" class="graph" transform="scale(1 1) rotate(0) translate(4 177)">
<title>G</title>
<polygon fill="#ffffff" stroke="transparent" points="-4,4 -4,-177 316,-177 316,4 -4,4"/>
<!-- node0000 -->
<g id="node1" class="node">
<title>node0000</title>
<polygon fill="#bb2fed" stroke="#000000" points="147,-107 0,-107 0,-77 147,-77 147,-107"/>
<text text-anchor="middle" x="73.5" y="-95" font-family="Courier,monospace" font-size="10.00" fill="#ffffff">source</text>
<text text-anchor="middle" x="73.5" y="-84" font-family="Courier,monospace" font-size="10.00" fill="#ffffff">JsonFileStore(&#39;x.json&#39;)</text>
</g>
<!-- node0004 -->
<g id="node5" class="node">
<title>node0004</title>
<polygon fill="#bb2fed" stroke="#000000" points="201,-30 54,-30 54,0 201,0 201,-30"/>
<text text-anchor="middle" x="127.5" y="-18" font-family="Courier,monospace" font-size="10.00" fill="#ffffff">area</text>
<text text-anchor="middle" x="127.5" y="-7" font-family="Courier,monospace" font-size="10.00" fill="#ffffff">JsonFileStore(&#39;z.json&#39;)</text>
</g>
<!-- node0000&#45;&gt;node0004 -->
<g id="edge1" class="edge">
<title>node0000&#45;&gt;node0004</title>
<path fill="none" stroke="#000000" d="M84.1687,-76.7873C91.7866,-65.9247 102.1829,-51.1004 110.8826,-38.6952"/>
<polygon fill="#000000" stroke="#000000" points="116.8535,-30.1811 114.796,-40.9523 113.9826,-34.2748 111.1117,-38.3685 111.1117,-38.3685 111.1117,-38.3685 113.9826,-34.2748 107.4274,-35.7846 116.8535,-30.1811 116.8535,-30.1811"/>
<text text-anchor="middle" x="119" y="-51" font-family="Courier,monospace" font-size="10.00" fill="#000000">width</text>
</g>
<!-- node0001 -->
<g id="node2" class="node">
<title>node0001</title>
<polygon fill="#bb2fed" stroke="#000000" points="312,-107 165,-107 165,-77 312,-77 312,-107"/>
<text text-anchor="middle" x="238.5" y="-95" font-family="Courier,monospace" font-size="10.00" fill="#ffffff">add</text>
<text text-anchor="middle" x="238.5" y="-84" font-family="Courier,monospace" font-size="10.00" fill="#ffffff">JsonFileStore(&#39;y.json&#39;)</text>
</g>
<!-- node0001&#45;&gt;node0004 -->
<g id="edge2" class="edge">
<title>node0001&#45;&gt;node0004</title>
<path fill="none" stroke="#000000" d="M216.8346,-76.9708C200.059,-65.3338 176.6145,-49.0704 157.9517,-36.1242"/>
<polygon fill="#000000" stroke="#000000" points="149.4901,-30.2544 160.2717,-32.2568 153.5984,-33.1043 157.7067,-35.9543 157.7067,-35.9543 157.7067,-35.9543 153.5984,-33.1043 155.1418,-39.6517 149.4901,-30.2544 149.4901,-30.2544"/>
<text text-anchor="middle" x="208" y="-51" font-family="Courier,monospace" font-size="10.00" fill="#000000">height</text>
</g>
<!-- node0002 -->
<g id="node3" class="node">
<title>node0002</title>
<polygon fill="#009aa6" stroke="#000000" points="229,-173 214,-173 214,-154 229,-154 229,-173"/>
<text text-anchor="middle" x="221.5" y="-161" font-family="Courier,monospace" font-size="10.00" fill="#ffffff">3</text>
</g>
<!-- node0002&#45;&gt;node0001 -->
<g id="edge3" class="edge">
<title>node0002&#45;&gt;node0001</title>
<path fill="none" stroke="#000000" d="M223.7927,-153.8572C226.016,-144.5064 229.485,-129.9159 232.4957,-117.2534"/>
<polygon fill="#000000" stroke="#000000" points="234.8795,-107.2276 236.9442,-117.9973 233.7229,-112.092 232.5662,-116.9564 232.5662,-116.9564 232.5662,-116.9564 233.7229,-112.092 228.1883,-115.9154 234.8795,-107.2276 234.8795,-107.2276"/>
<text text-anchor="middle" x="234" y="-128" font-family="Courier,monospace" font-size="10.00" fill="#000000">0</text>
</g>
<!-- node0003 -->
<g id="node4" class="node">
<title>node0003</title>
<polygon fill="#009aa6" stroke="#000000" points="262,-173 247,-173 247,-154 262,-154 262,-173"/>
<text text-anchor="middle" x="254.5" y="-161" font-family="Courier,monospace" font-size="10.00" fill="#ffffff">4</text>
</g>
<!-- node0003&#45;&gt;node0001 -->
<g id="edge4" class="edge">
<title>node0003&#45;&gt;node0001</title>
<path fill="none" stroke="#000000" d="M252.3422,-153.8572C250.2497,-144.5064 246.9847,-129.9159 244.1511,-117.2534"/>
<polygon fill="#000000" stroke="#000000" points="241.9076,-107.2276 248.4828,-116.0035 242.9995,-112.1069 244.0914,-116.9862 244.0914,-116.9862 244.0914,-116.9862 242.9995,-112.1069 239.7,-117.969 241.9076,-107.2276 241.9076,-107.2276"/>
<text text-anchor="middle" x="251" y="-128" font-family="Courier,monospace" font-size="10.00" fill="#000000">1</text>
</g>
</g>
</svg>
